<svg id="svg" viewBox="0 0 400 420" xmlns="http://www.w3.org/2000/svg" xmlns:xlink="http://www.w3.org/1999/xlink" version="1.1" width="800" height="840" preserveAspectRatio="xMidYMid meet" buffered-rendering="static" style="background: rgb(255, 255, 255);"><g><path d="M 359.5 50.56066552330897 C 357.5821567493034 50.158196017236264 359.7464702479103 51.84565102139793 365.5 55.23869854924869 C 370.45 58.157877902889986 377.65 63.08536375680507 381.5 66.18866711350445 C 385.35 69.29197047020382 391.1659303066068 73.33155356104234 394.4242895702374 75.16551842647893 L 400.3485791404748 78.5 L 401.47524751428807 83.5 C 402.09491511988534 86.25 403.8349918341137 90.75 405.34208465701766 93.5 C 406.84917747992165 96.25 409.63874640509886 100.6375 411.541126712967 103.25 C 413.44350702083517 105.8625 415.2343269275775 107.8875 415.5207265057278 107.75 C 415.80712608387813 107.6125 414.23871868453955 103.675 412.0353767294199 99 C 409.7548438388693 94.16121805852646 407.59472375769616 87.700245014068 407.02037341728135 84 C 406.46546355072485 80.425 405.1088709500634 76.2625 404.00572319358935 74.75 C 402.67860273089644 72.93041627874166 400.22375074058414 71.49150266595436 396.75 70.4970515880088 C 393.8625 69.67042996141365 390.0375 67.64542996141364 388.25 65.9970515880088 C 386.4625 64.34867321460396 384.8875 62.23112071872733 384.75 61.29137937494962 C 384.6125 60.35163803117191 383.15 58.6487006155699 381.5 57.507074006945146 C 379.85 56.36544739832039 374.9 54.47712872708168 370.5 53.31081029308133 C 366.1 52.14449185908098 361.15 50.90692671268342 359.5 50.56066552330897 Z " class="odd" fill="#000000"></path><path d="M 334 53.7110000869797 C 331.525 53.479148165517174 327.025 53.69330095180096 324 54.18689516761033 C 320.975 54.6804893834197 315.125 56.24502374999719 311 57.663638204449185 C 306.875 59.08225265890118 302.25711550823206 60.97577633972139 300.73803446273786 61.87146860627186 C 299.21895341724365 62.76716087282234 297.9814534172437 63.8375 297.98803446273786 64.25 C 297.994615508232 64.6625 298.7875 64.80178422527251 299.75 64.55952050060559 C 300.7125 64.31725677593866 303.525 63.57668036771781 306 62.913795149003704 C 308.79645567641774 62.1648136812516 316.7463291864683 61.77176555927214 327 61.87553830741578 C 340.33374970581895 62.010483135974766 343.26165896671245 61.79857950383251 342.25795446226346 60.77126365901766 C 341.5748294165084 60.072068646557945 341.3498294165084 59.15 341.75795446226346 58.72222222222223 C 342.1660795080186 58.29444444444445 345.425 57.96944444444444 349 57.999999999999986 C 352.575 58.03055555555554 355.275 57.85489296996082 355 57.60963869867841 C 354.725 57.364384427396 350.9 56.48170796029201 346.5 55.64813543844734 C 342.1 54.81456291660267 336.475 53.94285200844223 334 53.7110000869797 Z " class="odd" fill="#000000"></path><path d="M 302.75 70.03914181063521 C 301.5125 70.06066980648457 299.0375 70.73566980648457 297.25 71.53914181063521 C 295.4625 72.34261381478585 294 73.45 294 74 C 294 74.55 296.1375 74.99608855714867 298.75 74.99130790477481 C 301.3625 74.98652725240096 305.86823932227276 74.64902725240096 308.76275404949496 74.24130790477481 C 311.65726877671716 73.83358855714867 314.02425373023254 73.275 314.0227206128625 73 C 314.02118749549237 72.725 311.99044817321965 71.9375 309.50996656336747 71.25 C 307.02948495351535 70.5625 303.9875 70.01761381478585 302.75 70.03914181063521 Z " class="odd" fill="#000000"></path><path d="M 287.5 72 C 287.225 72 284.1875 74.51766427261387 280.75 77.5948094946975 C 277.3125 80.67195471678112 271.575 86.43777365039841 268 90.4077404582915 C 264.425 94.37770726618459 260.62884807917953 99.39754299357072 259.5641068426212 101.56293096359401 C 258.4993656060629 103.7283189336173 257.7118656060629 107.1875 257.8141068426212 109.25 C 257.9717975126643 112.4310746613803 257.7440810470919 112.88621493227606 256.3131423259622 112.25 L 254.62628465192438 111.5 L 255.2866230279502 126 C 255.64980913476444 133.975 256.64004375817166 147.025 257.4871444132996 155 C 258.33424506842744 162.975 259.9211787525328 172.5375 261.0136637113115 176.25 C 262.1061486700902 179.9625 263 183.675 263 184.5 C 263 185.325 262.6625 186.0056667460889 262.25 186.01259276908647 C 261.8375 186.01951879208403 259.25 183.7787116123343 256.5 181.0330212585315 C 253.75 178.28733090472872 250.825 175.85417294004841 250 175.6260035592419 C 249.175 175.3978341784354 247.825 175.62040028456565 247 176.120594906198 C 245.7580921069136 176.87355932884594 246.03499617007574 177.50062420132903 248.60933280645511 179.7650198364011 C 250.31946585000543 181.2692589263805 253.24446585000544 183.65620393819881 255.1093328064551 185.06934208488622 C 257.5637239634598 186.92920332531418 258.6891009311255 188.7240696127214 259.18481761618654 191.56934208488622 C 259.56146730508914 193.7312039381988 260.6240663648663 196.175 261.5461488601357 197 C 262.4682313554051 197.825 263.87517203384266 200.075 264.67268370110787 202 C 265.47019536837314 203.925 269.0695592696365 215.175 272.6712701483597 227 C 278.2845660304088 245.42935927959894 280.4025502153382 250.78512797797288 287.50096340209666 264.5 C 292.0555838129287 273.3 297.5034664587958 285.225 299.6073692818013 291 C 301.7112721048068 296.775 305.6394998411257 305.775 308.3367642513989 311 C 311.0340286616721 316.225 314.87418305476456 322.93413792953737 316.8704406804933 325.90919539897186 C 318.86669830622196 328.8842528684064 321.625 332.1623162992336 323 333.19378080081003 C 324.375 334.2252453023865 325.8375 335.05360737284917 326.25 335.03458540183817 C 326.6625 335.01556343082717 332.031200338224 331.0625 338.18044519605326 326.25 C 344.32969005388253 321.4375 353.66719005388256 313.69017694430056 358.93044519605326 309.0337265428902 C 364.19370033822395 304.3772761414798 373.8154673820659 295.3772761414798 380.31214973792424 289.0337265428902 C 389.1579861583152 280.396394594044 392.8653093980658 275.9932564943655 395.07507345740396 271.5 C 396.69799914725945 268.2 398.9296263587057 261.45 400.0342450383956 256.5 C 401.1388637180856 251.55 402.59554804431974 246.72073925200374 403.27132131891597 245.76830944889718 C 404.07601090683823 244.6341859571911 406.7430022983062 243.73086237767205 411 243.15056658197824 C 414.575 242.66323780827938 419.75 241.2672541678801 422.5 240.04838071442433 C 425.475761611292 238.7294436846728 429.932888383383 235.335906350112 433.50939196923304 231.66612358134324 C 436.8145575523112 228.27475561160446 440.2756336634703 223.925 441.20067221625317 222 C 442.12571076903606 220.075 443.3950404538039 215.35 444.02140484907056 211.5 C 444.8978380495631 206.11293162990285 444.87533226600254 203.117487174369 443.9237314684988 198.5 C 443.03162185125467 194.17118404423243 441.778185449345 191.5251426408644 439.4235578117354 189 C 437.62854705509676 187.075 435.786423965195 185.84772696034608 435.3299509452871 186.27272657854684 C 434.87347792537923 186.69772619674757 435.55340765585015 190.52272619674758 436.84090590188924 194.77272657854684 C 438.906357536145 201.59073216510222 439.04671171597505 203.08834972266763 438.0336844009909 207.5 C 437.40221432945776 210.25 435.4488066736076 215.1457493365329 433.6927784991017 218.3794429700731 C 431.9367503245958 221.61313660361327 428.3625 226.22563660361328 425.75 228.6294429700731 C 423.1375 231.0332493365329 418.1875 234.36765631508564 414.75 236.03923625574583 C 410.9931433311304 237.86611225505288 407.3032912010574 238.96309532075028 405.5 238.78923625574583 C 403.14034369450314 238.56173687086286 402.5635233846514 238.07310420366454 402.79760604436353 236.5 C 402.96128936876346 235.4 404.5079152259358 230.9 406.23455239363534 226.5 C 407.96118956133495 222.1 410.30226684137136 217.043070378431 411.43694634927186 215.26237861873557 C 412.57162585717236 213.4816868590401 413.95 212.03056205219033 414.5 212.03765682573606 C 415.05 212.04475159928182 416.281480902515 212.82668122085082 417.23662422781115 213.77527820700053 L 418.9732484556223 215.5 L 419.5452907140215 210.5 C 419.8599139561411 207.75 420.99093305362607 204.0375 422.05866648621037 202.25 C 423.4191906463287 199.97233699723597 425.45958756896596 198.47643392456524 428.878616788854 197.25 C 431.5618560227237 196.2875 433.9243560227237 195.05 434.128616788854 194.5 C 434.3328775549843 193.95 433.6 193.36377432880965 432.5 193.1972762862437 C 431.3680950722003 193.0259490545624 427.2446434792491 195.08916988459197 423 197.950720686752 C 418.875 200.73161314959754 415.1625 203.0053388207879 414.75 203.00344440050833 C 414.3375 203.00154998022873 414.5128610810382 201.9875 415.139691291196 200.75 C 415.76652150135385 199.5125 418.16474491280104 196.475 420.46907664996763 194 C 422.7734083871342 191.525 425.3593567278714 188.15 426.21562851827247 186.5 C 427.07190030867355 184.85 428.7111745859086 180.125 429.8584602454615 176 C 431.0057459050144 171.875 433.75693648323903 164.1125 435.97221708596066 158.75 C 438.44853818652535 152.75560277309174 440.2377729613321 146.59256232494118 440.6172874270938 142.75 C 441.05931181601363 138.27452826755973 440.59550917576667 133.09290572628532 438.9837454010036 124.5 C 437.7457892017525 117.9 435.4602987147206 108.9 433.904877652044 104.5 C 432.3494565893673 100.1 429.9345505011079 95.2625 428.5384196781341 93.75 C 427.14228885516036 92.2375 426.225 90.55 426.5 90 C 426.775 89.45 425.3125 87.64693282544081 423.25 85.99318405653516 C 421.1875 84.3394352876295 418.4875 82.98943528762949 417.25 82.99318405653516 C 415.24145487458145 82.99926855876691 415.1239951570571 83.24145487458146 416.1554502838761 85.25 C 416.790947940008 86.4875 419.7665144914376 90.65 422.76782039816413 94.5 C 425.7691263048907 98.35 429.24089518664414 103.525 430.48286235761634 106 C 431.72482952858854 108.475 433.0576132064361 111.625 433.4446038639442 113 C 433.99865109878164 114.96856159992795 433.5478866967178 116.08226056718883 431.3241116206159 118.23907835371838 L 428.5 120.97815670743675 L 430.2686974962196 125.23907835371838 C 431.24148111914036 127.58258525917327 432.3197931445378 131.975 432.6649464415473 135 C 433.0194393776425 138.10685466712752 432.74893219635567 143.32826266612201 432.0432585412591 147 C 431.3561768990911 150.575 429.97979791209576 155.075 428.98463857015827 157 C 427.9894792282207 158.925 425.67332491005163 161.94939683329034 423.83762897422685 163.72088185175627 L 420.5 166.94176370351255 L 414.1178541739313 147.72088185175627 C 410.60767396959346 137.14939683329033 406.8727934165315 126.925 405.8181196115714 125 L 403.9005308752802 121.5 L 404.4502654376401 125.25 C 404.8125437058938 127.72127177181571 404.5737572572719 129.2235922777078 403.75 129.65570699302918 C 402.99867788034703 130.04982472732834 401.40290866323653 128.85299781449547 399.75 126.65570699302917 C 398.191060080846 124.58333333333333 396.13377448665744 123 395 123 C 393.6187813966773 123 392.68548600554703 121.99448023039932 391.983440691198 119.75 C 391.42433307135684 117.9625 390.97433307135685 113.9125 390.983440691198 110.75 C 390.995630871628 106.51712178565265 390.60422909939496 104.86807636646499 389.5 104.5 C 388.675 104.225 387.1 104.45 386 105 C 384.9 105.55 383.3215205873055 107.0125 382.49226797178994 108.25 C 381.6630153562744 109.4875 380.9880153562744 111.7375 380.99226797178994 113.25 C 380.9966113906187 114.79479542166031 382.6171968495933 118.30084510410303 384.6900717241784 121.25 C 386.7196111724765 124.1375 391.2906832623712 130.775 394.8480097017222 136 C 398.40533614107324 141.225 403.44826029401526 150 406.0545078193712 155.5 C 408.6607553447272 161 411.3734381789503 167.75 412.0826918954227 170.5 L 413.3722441071907 175.5 L 410.636563693575 186.5 C 409.1319394660864 192.55 406.5182289361223 200.2 404.8283180714325 203.5 C 403.13840720674267 206.8 399.67320846875185 211.8731447665859 397.1278764314528 214.77365503685755 C 394.58254439415373 217.6741653071292 392.725 220.26813631033443 393 220.53803504398024 C 393.275 220.8079337776261 394.7375 220.5722890110402 396.25 220.01438000712272 C 397.7625 219.45647100320522 399.203806196112 219.3375 399.4529026580267 219.75 C 399.7019991199413 220.1625 398.7950957542237 225.9 397.43756184532083 232.5 C 395.794570109389 240.48782659205483 393.74010072685695 247.00760837996572 391.29285420592436 252 C 388.2940364843931 258.11759883400623 385.3016615790561 261.86212324712847 375.05819501863016 272.3153279881876 C 365.0043586134122 282.57501983731964 362.79913040166565 285.3185159849587 364 286.07268664696596 C 365.26367935267143 286.8663031189717 365.10613225445235 287.3282691495856 363 289.0049274551817 C 361.625 290.09954303087545 358.25 291.67561527626196 355.5 292.50731022270736 C 352.75 293.3390051691527 349.0375 294.01509921077115 347.25 294.009741426304 C 345.4625 294.0043836418368 342.03745020423577 293.4375 339.63877823163506 292.75 C 335.7760302422073 291.6428710248562 335.09024932289753 291.70001943479866 333.63877823163506 293.25 C 332.49026361903026 294.47646282044707 330.42938846134126 295.0091135128478 326.75 295.03046325668276 C 322.72752230806435 295.0538037843837 320.56474490814145 294.44602675589846 317.5 292.43105681120693 C 315.3 290.9846284750197 312.00146979144466 288.38342000951246 310.169932869877 286.65059355452416 C 308.3383959483094 284.91776709953587 305.3794545346733 281.475 303.59450750624126 279 C 301.80956047780927 276.525 299.6094680980661 272.475 298.7054133290343 270 C 297.8013585600025 267.525 293.87178466503343 259.65 289.9730268957697 252.5 C 286.07426912650595 245.35 281.9992514297489 237.475 280.91743201408724 235 C 279.83561259842566 232.525 278.9616279070308 229.4875 278.97524381098765 228.25 C 278.98885971494445 227.0125 279.45 226 280 226 C 280.55 226 281.00803995420176 224.7625 281.01786656489276 223.25 C 281.0276931755838 221.7375 279.49650329007557 215.325 277.61522237487446 209 C 275.73394145967336 202.675 273.2613683350035 193.45 272.12061543116374 188.5 C 270.979862527324 183.55 269.6361840691759 175.45 269.1346633019458 170.5 C 268.6331425347158 165.55 268.5101757051838 159.96771386065873 268.8614036807638 158.09491969035273 C 269.30165345266033 155.7474494897657 270.2764942474806 154.36735163790692 272 153.6515582091293 C 273.375 153.0805035647624 275.30216763099577 151.9127897041037 276.2825947355461 151.05663851877657 C 277.2630218400964 150.20048733344944 278.05052184009645 148.4875 278.0325947355461 147.25 C 278.0134891968097 145.93115321579828 277.3792311894678 145 276.5 145 C 275.675 145 272.3 146.35 269 148 C 265.7 149.65 262.8107685361729 150.8875 262.5794856359397 150.75 C 262.3482027357065 150.6125 262.0107027357065 143.975 261.8294856359397 136 L 261.5 121.5 L 266.224085663795 113.5 C 269.7312210420508 107.56084372240038 270.56843880427596 105.43559863367499 269.474085663795 105.25 C 268.66333854870777 105.1125 268 104.55 268 104 C 268 103.45 270.925 98.725 274.5 93.5 C 278.075 88.275 280.98565606718773 83.6625 280.96812459375053 83.25 C 280.95059312031333 82.8375 282.5255931203133 80.8125 284.46812459375053 78.75 C 286.41065606718774 76.6875 288 74.325 288 73.5 C 288 72.675 287.775 72 287.5 72 Z " class="odd" fill="#000000"></path><path d="M 350.75 75.12475580547101 C 347.3125 75.19337149848006 342.25 75.57359913366713 339.5 75.96970610588673 C 336.75 76.36581307810633 333.2625 76.98467296564438 331.75 77.34495030041572 C 330.2375 77.70522763518707 328.99769856489803 78.5625 328.99488569977336 79.25 C 328.99093644819175 80.21524729841643 331.4398096818105 80.34345664520666 339.74488569977336 79.81281005446667 C 345.66019856489805 79.43485558442333 352.1875 78.64735558442334 354.25 78.06281005446667 C 356.3125 77.47826452451 357.775 76.55 357.5 76 C 357.225 75.45 354.1875 75.05614011246195 350.75 75.12475580547101 Z " class="odd" fill="#000000"></path><path d="M 312.5 77 C 309.9887657700602 77 308.2231126092384 77.79065634828972 306.25 79.79873889530532 C 304.52046962719805 81.55892214074996 301.45906074560395 83.09303679296572 298 83.93292886152432 C 294.975 84.66742695052686 291.15 85.96532133207968 289.5 86.81713859830838 C 287.85 87.66895586453707 285.50561826917095 89.52107037973852 284.29026282037984 90.93294863208936 C 283.0749073715887 92.34482688444021 280.71240737158877 96.0875 279.04026282037984 99.25 C 277.3681182691709 102.4125 276.1125 105.71125741718726 276.25 106.5805720381939 C 276.4025719101744 107.54517561833576 278.6434179761635 105.34927560656187 282 100.94590339256939 C 285.025 96.97752101646927 288.9625 92.44126359928201 290.75 90.86533135437548 C 292.9065329154768 88.96404477608058 295.0934670845232 88.00074541347483 297.25 88.00221551597434 C 299.24434411331436 88.00357505481786 303.37317855158904 86.36156351069046 307.9366157095093 83.75221551597434 C 312.0267543497394 81.41349698218846 315.5142543497394 78.9375 315.6866157095093 78.25 C 315.8925961857743 77.42840299228749 314.800471621595 77 312.5 77 Z " class="odd" fill="#000000"></path><path d="M 349 96.49353259349694 C 345.975 96.26115291794932 340.35 96.72974475628591 336.5 97.5348477898005 C 331.032963671115 98.67810169440303 328.84301556952215 98.74662899929129 326.5 97.84776527327159 C 324.23748637650027 96.97978494388603 322.57814202937465 96.97994823724686 319.75 97.84842952972173 C 317.6875 98.48179328837477 315.9895833333333 99.3375 315.97685185185185 99.75 C 315.9641203703704 100.1625 317.31412037037035 100.8375 318.97685185185185 101.25 C 320.63958333333335 101.6625 322 102.45 322 103 C 322 103.55 319.6807924115537 105.4625 316.84620535900814 107.25 C 314.0116183064626 109.0375 310.41161830646263 111.9625 308.84620535900814 113.75 C 307.28079241155365 115.5375 305.1 118.8 304 121 C 302.9 123.2 301.325 125 300.5 125 C 299.675 125 297.875 124.325 296.5 123.5 C 295.125 122.675 293.6625 122.17282597665975 293.25 122.38405772591057 C 292.8375 122.5952894751614 292.1169728963478 125.4077894751614 291.6488286585507 128.63405772591057 C 291.1806844207536 131.86032597665977 290.3931844207536 135.2875 289.8988286585507 136.25 C 289.40447289634784 137.2125 287.9875 138.2782262575259 286.75 138.61828057227973 C 285.5125 138.9583348870336 283.69783236900423 139.9708348870336 282.7174052644539 140.86828057227973 C 281.7369781599035 141.7657262575259 280.93481052890775 143.175 280.93481052890775 144 C 280.93481052890775 144.825 281.7369781599035 146.2885961706667 282.7174052644539 147.2524359348149 C 283.7227037328097 148.2407262769949 286.3304027213064 149.11282160151313 288.6977124973525 149.2524359348149 C 292.312937847945 149.46564726954003 293.3924522297333 149.01432952710658 296.47726786902115 146 C 298.44728144989506 144.075 301.58180250313393 140.025 303.442870209552 137 C 305.30393791597004 133.975 307.20313799871917 130.18334247875984 307.6633148378833 128.5740943972441 C 308.12349167704747 126.96484631572834 310.525 123.8819808477789 313 121.72328224624535 C 315.475 119.56458364471179 319.525 116.61439221554025 322 115.1673012925308 C 325.8137823221205 112.93744683569263 327.94868176441224 112.47978450090545 336 112.16609544644066 C 341.225 111.96252315410054 350.225 112.29007811972285 356 112.89399537004581 C 363.53898176750556 113.6823799829059 367.010756772889 114.48665401040898 368.3111830776593 115.74601336713471 C 369.7148547228046 117.105357617247 370.5023455244757 117.2520878407265 371.8111830776593 116.39815531100055 C 372.8603068857849 115.71366933694726 373.5946954500741 113.72506488539153 373.75 111.14815531100055 C 373.8875 108.86666988995024 373.6625 106.30671126097253 373.25 105.45935835771675 C 372.8375 104.61200545446097 368.45 102.3431147007218 363.5 100.41737890496306 C 358.55 98.49164310920432 352.025 96.72591226904456 349 96.49353259349694 Z " class="odd" fill="#000000"></path><path d="M 296.5 159.67755123161214 C 293.75 159.3716093602578 290.0375 159.54400229486373 288.25 160.06064664184757 C 286.4625 160.5772909888314 285 161.45 285 162 C 285 162.55 285.7875 163.40256462080697 286.75 163.8945880462377 C 287.7125 164.38661147166843 293.9 166.1998166739698 300.5 167.92393294024072 C 307.1 169.64804920651162 314.1875 172.17048458570466 316.25 173.529344894003 C 318.3125 174.88820520230135 320 176.675 320 177.5 C 320 178.325 319.4375 178.99185759608886 318.75 178.98190576908635 C 318.0625 178.97195394208384 314.8 178.2622702727266 311.5 177.40483094829247 C 308.19022831689193 176.54485264647568 301.01628613851346 175.80562104059922 295.5 175.7561271533733 C 290 175.7067793906019 284.4875 175.96646305995915 283.25 176.3332019741672 C 281.37082592757054 176.89010400158594 281.0412028808412 177.6150412183844 281.25 180.73178528920852 C 281.44804201266714 183.6879863672749 282.01957987332827 184.65213000836073 284 185.37083931428927 C 285.375 185.869837119019 287.625 186.01947074448185 289 185.70335848198448 C 290.375 185.3872462194871 292.175 183.96226613502364 293 182.53673607206565 C 293.825 181.1112060091077 294.8375 179.957269003501 295.25 179.97243161516195 C 295.6625 179.98759422682286 297.125 181.35 298.5 183 C 299.875 184.65 301.675 186 302.5 186 C 303.325 186 305.5891557924697 185.2125 307.53145731659936 184.25 C 310.55589790021565 182.75125017894163 311.5608986159822 182.67946441352973 314.53145731659936 183.75 C 317.15210904960855 184.69443544891016 319.0389194737055 184.73369042417417 322.25 183.9105838075949 C 324.5875 183.31140490177208 327.52407138824196 181.84890490177207 328.77571419609325 180.6605838075949 C 330.02735700394453 179.4722627134177 331.0433364166391 177.6 331.0334462243033 176.5 C 331.02355603196753 175.4 330.3369846437256 173.4875 329.50773202821006 172.25 C 328.6784794126945 171.0125 325.75 168.875 323 167.5 C 320.25 166.125 314.2875 163.92760706539406 309.75 162.61690458976457 C 305.2125 161.3062021141351 299.25 159.9834931029665 296.5 159.67755123161214 Z " class="odd" fill="#000000"></path><path d="M 379 165.68468804037957 C 374.325 165.37487138688692 368.475 165.5427590303959 366 166.05777169262174 C 363.525 166.57278435484758 359.25 168.07992232224666 356.5 169.40696717573078 C 353.75 170.7340120292149 350.0375 173.4353264001917 348.25 175.4098880001237 C 346.10335822219474 177.781175509642 345 180.01848451279514 345 182 C 345 183.65 345.45 185 346 185 C 346.55 185 348.9125 183.41415482027526 351.25 181.47589960061168 C 353.7888711894285 179.3706673717504 358.7209483493111 176.86606271561917 363.5 175.25511147361937 C 370.08962619679625 173.03384096181955 373.5274123421054 172.52100635373066 383 172.3461827517502 C 393.1173588877228 172.15945942047478 394.5 171.92758673327904 394.5 170.4176013729143 C 394.5 169.3563809278442 393.1640646524053 168.233059555173 391 167.4746260175367 C 389.075 166.79997678359294 383.675 165.99450469387224 379 165.68468804037957 Z " class="odd" fill="#000000"></path><path d="M 241 179.5 C 240.45 179.225 239.4881573385256 180.6875 238.86257186339026 182.75 C 238.0552570182546 185.41164566517799 238.00898217738347 188.67670866964403 238.70312870437994 194 C 239.2410204420596 198.125 240.87786310353397 204.0875 242.34055684098968 207.25 C 243.80325057844536 210.4125 247.1375 215.3012800056835 249.75 218.11395556818556 C 252.3625 220.9266311306876 256.6375 224.3016311306876 259.25 225.61395556818556 C 261.8625 226.9262800056835 264.7165690476867 227.8875 265.5923756615259 227.75 C 266.6710648771462 227.58064781105318 264.79203681959956 225.08056566840455 259.76758006878646 220 C 254.68358736089985 214.85923352690259 251.38506189285695 210.4553309433511 249.28157233440112 206 C 247.59371227033515 202.425 245.26487028706794 195.1125 244.10636792714058 189.75 C 242.94786556721326 184.3875 241.55 179.775 241 179.5 Z " class="odd" fill="#000000"></path><path d="M 373.5 181.05715430944537 C 369.1 181.0993047485749 363.475 181.78176000974344 361 182.5737215564866 C 358.525 183.36568310322977 355.69783236900423 184.79808002214247 354.7174052644539 185.75682582073708 C 353.7369781599036 186.71557161933168 352.94947815990355 188.2875 352.9674052644539 189.25 C 352.9856805792795 190.23119528841136 353.76880471158864 191.00709816187955 354.75 191.0161572673814 C 355.7125 191.02504376444116 358.075 189.87996236957628 360 188.47153194545942 L 363.5 185.91074935615606 L 365 187.8452608166236 C 365.825 188.90924211988076 367.7375 190.27932351474564 369.25 190.8898861385456 C 371.13813831406867 191.6520855984695 372.78351062357393 191.6865957505704 374.5 191 C 375.875 190.45 377 189.325 377 188.5 C 377 187.675 377.5625 186.80320672792075 378.25 186.5626816176017 C 378.9375 186.32215650728264 380.07 186.65965650728262 380.76666666666665 187.3126816176017 C 381.4633333333333 187.96570672792078 382.0183333333333 189.175 382 190 C 381.9816666666666 190.825 382.53666666666663 192.07 383.23333333333335 192.76666666666665 C 383.93 193.46333333333334 385.625 194.0413967641604 387 194.0512520685046 C 388.375 194.06110737284877 390.7375 193.15360737284877 392.25 192.03458540183792 C 393.7625 190.91556343082706 395.0200364079815 189.2125 395.04452535106986 188.25 C 395.0690142941583 187.2875 394.5065142941583 185.9834142475366 393.79452535106986 185.3520316611924 C 393.0825364079815 184.7206490748482 390.025 183.47876543301135 387 182.59229023488825 C 383.8068077700495 181.65652636226326 378.14464324356436 181.01266027482805 373.5 181.05715430944537 Z " class="odd" fill="#000000"></path><path d="M 348.25 216.0273922725372 C 347.2875 215.49245802243271 346.181458692541 215.3799580224327 345.792130427869 215.7773922725372 C 345.40280216319695 216.17482652264175 346.19252130558885 218.075 347.5470618554066 220 C 348.90160240522437 221.925 350.0151437126833 224.175 350.0215980942043 225 C 350.0280524757253 225.825 349.46333333333337 227.07 348.76666666666665 227.76666666666665 C 347.95943437221626 228.57389896111707 344.7796649013511 229.01542071955424 340 228.98394801921893 C 335.875 228.956786096456 329.35 228.54192732838473 325.5 228.06203964572717 C 321.65 227.58215196306963 317.9375 227.37187535442112 317.25 227.59475829317492 C 316.5625 227.81764123192872 316 228.9 316 230 C 316 231.1 316.675 232.675 317.5 233.5 C 318.325 234.325 320.575 235 322.5 235 C 324.425 235 327.6875 235.85542124412822 329.75 236.90093609806272 L 333.5 238.80187219612543 L 336 236.80602057032985 C 338.0761330206387 235.14855918448606 339.3477339587227 234.92581042258357 343.5 235.49223126408265 C 347.3716190723571 236.02036836106254 348.89493332467504 235.81611234978016 350.25 234.58714679181548 C 351.2125 233.71421605631699 352.0699860874379 231.9875 352.15552463875076 230.75 C 352.2410631900637 229.5125 352.2219729367631 227.375 352.11310185363834 226 C 352.00423077051363 224.625 351.48424468307576 222.0375 350.9575772148876 220.25 C 350.4309097466994 218.4625 349.2125 216.56232652264174 348.25 216.0273922725372 Z " class="odd" fill="#000000"></path><path d="M 328.362525162726 252.3379044409063 L 326.5 250.1758088818126 L 317 252.14720890297403 C 311.775 253.2314789146128 307.05 254.54192191620498 306.5 255.05930446206773 L 305.5 256 L 306.5 256.993163004689 C 307.05 257.5394026572679 310.425 258.47827467337834 314 259.07954526271214 C 317.575 259.68081585204595 328.375 260.24639249993595 338 260.33638225802315 C 347.625 260.4263720161104 357.6375 260.1625 360.25 259.75 C 362.8625 259.3375 365 258.55 365 258 C 365 257.45 363.3125 256.4729014994058 361.25 255.82866999867952 C 359.1875 255.18443849795327 351.3631363232267 254.62193849795327 343.862525162726 254.57866999867952 L 330.225050325452 254.5 L 328.362525162726 252.3379044409063 Z " class="odd" fill="#000000"></path><path d="M 404.75 261.95970342627277 C 403.7875 261.98186654182274 403 262.225 403 262.5 C 403 262.775 404.41071319462475 267.1625 406.13491821027725 272.25 C 408.5728609365542 279.4434796078994 409.12867725874355 282.4448877477219 408.63491821027725 285.75 C 408.28571319462475 288.0875 406.61120288781854 293.4875 404.91378419515235 297.75 C 403.21636550248616 302.0125 392.68644444293915 325.75 381.5139596183813 350.5 C 370.34147479382347 375.25 358.8543828362422 401.125 355.98708860153414 408 C 353.11979436682606 414.875 348.1657323112666 427.25 344.978061811402 435.5 C 341.79039131153735 443.75 335.82935749018117 460.175 331.731319986166 472 C 327.63328248215083 483.825 323.50555567826035 496.875 322.5585937552983 501 C 321.6116318323363 505.125 321.129445229613 508.725 321.4870679714689 509 C 321.8446907133248 509.275 323.00931944927817 508.375 324.07513182914306 507 C 325.140944209008 505.625 329.12577418720394 498.425 332.9303095584673 491 C 336.7348449297306 483.575 341.72234403050857 471.875 344.0136408935293 465 C 346.3049377565501 458.125 351.4731809391312 444.4 355.4986257437097 434.5 C 359.5240705482881 424.6 366.62193088065624 407.725 371.2716487045278 397 C 375.9213665283994 386.275 388.60958103037837 358.6 399.4676809311478 335.5 C 410.3257808319172 312.4 419.3875025818146 293.3875 419.60484037536423 293.25 C 419.8221781689139 293.1125 423.0375 294.6843257013344 426.75 296.74294600296537 C 430.4625 298.8015663045963 435.75 302.16816380146423 438.5 304.22427377378307 C 442.1733744888104 306.97076901687564 445.4899382667844 308.3946847335403 451 309.5909567775941 C 455.125 310.4865224573714 463.675 312.69960833588465 470 314.5089253965125 C 476.325 316.31824245714034 485.55 319.6771238208183 490.5 321.9731062046857 C 495.45 324.26908858855313 505.35 328.52321484940285 512.5 331.426720117685 C 519.65 334.33022538596714 529.9748053017917 338.45951096923983 535.4440117817594 340.6029103027354 C 540.913218261727 342.74630963623093 546.538218261727 345.64662623453376 547.9440117817594 347.04805829896384 C 549.3498053017917 348.4494903633939 551.7375 352.16199036339395 553.25 355.29805829896384 C 554.7625 358.4341262345337 557.0721968104752 364.7125 558.3826595788338 369.25 C 559.6931223471923 373.7875 561.749077526841 383.125 562.9514488669419 390 C 564.1538202070427 396.875 566.4386575647801 407.675 568.0288652174695 414 C 569.6190728701589 420.325 571.3659267643601 428.65 571.9107627601389 432.5 C 572.4555987559178 436.35 573.362674300278 444.225 573.9264861920506 450 C 574.4902980838231 455.775 575.8882716606347 474.225 577.0330941405208 491 C 578.1779166204069 507.775 579.7758147678467 527.125 580.5839789126092 534 C 581.3921430573718 540.875 582.4648944817116 550.55 582.9678709666978 555.5 C 583.470847451684 560.45 584.4134308980823 573.5 585.0625008475829 584.5 C 585.7115707970834 595.5 586.300536722082 622.05 586.3713140142465 643.5 L 586.5 682.5 L 583.3664839932177 688.5 C 581.6430501894874 691.8 579.6794302951498 697.2 579.0028842280229 700.5 C 578.3263381608961 703.8 574.7248542784956 715.05 570.9995867115774 725.5 C 567.2743191446592 735.95 563.0504390389968 748.2125 561.6131864767722 752.75 C 560.1759339145475 757.2875 559 761.225 559 761.5 C 559 761.775 559.675 762 560.5 762 C 561.3405911692039 762 563.0464134744498 759.6920690922136 564.3803445425194 756.75 C 565.6895340409052 753.8625 570.134666886063 742.5 574.258417531759 731.5 C 578.3821681774552 720.5 583.3613148836777 705.875 585.3231879900311 699 C 587.2850610963847 692.125 589.7969235930568 682 590.9051046493026 676.5 C 592.0132857055485 671 593.2163775344104 661.775 593.5786420467737 656 C 593.940906559137 650.225 593.7183943031145 634.025 593.0841703667234 620 C 592.4499464303324 605.975 591.254946711862 585.05 590.4286154367892 573.5 C 589.6022841617164 561.95 588.4812961538327 548.45 587.9375309748254 543.5 C 587.3937657958182 538.55 586.7544229842997 533.825 586.516769171451 533 C 586.2791153586023 532.175 585.3649275343167 525.2 584.4852406730386 517.5 C 583.6055538117605 509.8 582.4892323327922 490.675 582.0045262753313 475 C 581.4256670643302 456.2801635284458 580.5642219366639 443.5831091230951 579.4942220184461 438 C 578.5982607346202 433.325 576.5811740083481 424.325 575.0118070711746 418 C 573.4424401340013 411.675 570.7384089861268 399.3 569.0028489647868 390.5 C 567.2672889434469 381.7 564.9387871178664 370.9 563.8284004634966 366.5 C 562.7180138091269 362.1 560.8775313650842 356.7 559.7384394767353 354.5 C 558.5993475883863 352.3 555.604706569978 348.32119986727565 553.0836816580504 345.6582219272792 C 550.5626567461227 342.9952439872827 547.15 339.9735290800214 545.5 338.94329991114296 C 543.85 337.9130707422645 539.125 336.12241877645846 535 334.9640733204629 C 530.875 333.8057278644673 517.6 328.7759991861598 505.5 323.78689847977955 C 493.4 318.79779777339934 476.525 312.12230069489635 468 308.9524605275508 C 459.475 305.7826203602052 450.25 302.2060567564956 447.5 301.00454140819625 C 444.75 299.8030260598968 439.1709000813742 296.49797523693013 435.1020001808316 293.6599840238259 C 431.033100280289 290.82199281072167 424.17060028028897 284.7875 419.8520001808316 280.25 C 415.5334000813742 275.7125 411.9932417563982 271.4375 411.98498168088497 270.75 C 411.9767216053717 270.0625 410.7392216053717 267.79436654182274 409.23498168088497 265.70970342627277 C 407.73074175639823 263.6250403107228 405.7125 261.9375403107228 404.75 261.95970342627277 Z " class="odd" fill="#000000"></path><path d="M 317.5 268 C 317.225 268 316.98443656917294 268.3375 316.96541459816206 268.75 C 316.9463926271512 269.1625 317.8463926271512 270.7375 318.96541459816206 272.25 C 320.21833180387733 273.9434763773516 322.6328092350021 275.42691268201645 325.25 276.11120078186445 C 327.5875 276.7223612118899 332.2 276.95914324238254 335.5 276.63738307184815 C 338.8 276.3156229013137 343.01772846357136 275.2530825494747 344.8727299190474 274.2761822899837 C 346.7277313745235 273.29928203049263 348.75273137452353 271.7350727656349 349.3727299190474 270.8001617014109 C 349.9927284635713 269.8652506371869 350.146257213487 268.7402506371869 349.71390491885995 268.3001617014109 C 349.28155262423286 267.8600727656349 344.78155262423286 268.3742433407154 339.71390491885995 269.44276297936756 L 330.5 271.3855259587352 L 324.25 269.69276297936756 C 320.8125 268.76174334071544 317.775 268 317.5 268 Z " class="odd" fill="#000000"></path><path d="M 326.25 302.0327186474477 C 329.1375 302.050713903544 334.65 302.48860915859854 338.5 303.0058192142356 C 342.35 303.52302926987267 345.95 304.382933833323 346.5 304.9167182441253 C 347.1620202393141 305.5592202139098 346.61488359390967 307.34270542151063 344.8811555925895 310.19361767733744 C 343.44079116851367 312.56212795480184 340.1782911685137 316.6375 337.6311555925895 319.25 C 334.1388104967551 322.831965423869 332.2622939519173 324 330 324 C 327.97048335719694 324 326.5469844083273 323.27213748210227 325.5996186694603 321.75 C 324.82940893766346 320.5125 323.4794089376635 316.2375 322.5996186694603 312.25 C 321.71982840125713 308.2625 321 304.325 321 303.5 C 321 302.3529881082606 322.2354583789121 302.00769952897826 326.25 302.0327186474477 Z " class="even" fill="#ffffff"></path><path d="M 298.823452177243 311.22359403677103 L 298.5 308.94718807354207 L 266 327.5825756092787 C 248.125 337.83203875393383 230.8 348.12572845858483 227.5 350.4574416196142 C 224.2 352.78915478064357 219.7 356.7065304660706 217.5 359.1627209205632 C 215.3 361.61891137505575 212.73649894814605 365.17460435385783 211.8033309958801 367.06426087345665 C 210.87016304361413 368.95391739305546 209.80035019325905 372.975 209.42596910620213 376 C 209.0515880191452 379.025 209.02758907099917 384.0875 209.37263811032204 387.25 L 210 393 L 214 393 L 218 393 L 218 407 L 218 421 L 215.25 421.01983226141965 C 213.01001252275537 421.03598644950165 212.54153226365958 421.45326942266513 212.72394298172674 423.26983226141965 C 212.84711162167645 424.49642451763884 213.40712545690158 434.725 213.96841817111593 446 C 214.52971088533027 457.275 215.44109468888666 480 215.9937155123523 496.5 C 216.54633633581795 513 217.4540958939272 535.5 218.0109589748172 546.5 C 218.56782205570724 557.5 219.51180430574001 570.55 220.10869730822336 575.5 C 220.7055903107067 580.45 222.7926702178135 589.45 224.74665265734959 595.5 C 227.01281910478139 602.5165968381054 228.30895860542753 608.4917015809473 228.32588727851368 612 C 228.3442694959233 615.8095309625719 227.5755027255081 619.1904690374281 225.82467776584687 623 C 224.43441593177596 626.025 220.53011995688595 632.2125 217.14846448831352 636.75 C 213.7668090197411 641.2875 210.53948999883457 646.2375 209.97664444185457 647.75 C 209.1113387000464 650.0752825188979 209.44681667847965 651.4266563224046 212.14882826225562 656.5 C 213.9063749204562 659.8 215.87269795121966 664.75 216.5184349972856 667.5 C 217.32521413941447 670.9358298852005 217.44702674393628 676.0975912640389 216.9078191293863 684 C 216.47624335597575 690.325 215.15241501252763 702.25 213.96597836616823 710.5 C 212.52534388455783 720.517588810794 210.87628495503148 727.8251252216295 209.00133715058897 732.5 C 207.45722112837976 736.35 205.81273644222986 741.9148496522621 205.34692673692248 744.8663325605824 L 204.5 750.2326651211647 L 206.93913794247317 749.8663325605824 C 208.8901046963708 749.5733181171919 209.60698774665468 748.5993660873635 210.52103029741863 745 C 211.1495452242784 742.525 212.24566658598243 739.375 212.95685554564983 738 C 213.66804450531723 736.625 215.0774563816185 734.6 216.08888193743047 733.5 C 217.4326662946197 732.0385352541132 218.19476395083396 728.8073237294341 218.9191429106669 721.5 C 219.46436089013497 716 220.38059745410823 705.9875 220.95522416394078 699.25 C 221.52985087377334 692.5125 221.9968472840859 682.3875 221.99299396463533 676.75 C 221.98837453371272 669.9916602982639 221.3196537319132 663.7748017184281 220.02991977272353 658.5 C 218.52605053749903 652.3494198980095 218.30160267549775 649.6908787946209 219.05902998293436 647 C 219.6008780846512 645.075 220.79224782622785 642.375 221.70651829754905 641 C 222.62078876887026 639.625 226.12661819369015 635.35 229.49725035270438 631.5 C 232.8678825117186 627.65 235.93489615650228 623.2625 236.31283623000147 621.75 C 236.7145517594075 620.1423516429439 235.98819561242567 613.4959420839974 234.56426833802354 605.75 C 233.22461592393648 598.4625 231.6582716496676 588.675 231.08350328409267 584 C 230.50873491851775 579.325 229.59181249545577 570.55 229.04589789951052 564.5 C 228.49998330356524 558.45 227.35800718540062 540.675 226.50817319247804 525 C 225.65833919955546 509.325 223.88157223755604 480.75 222.5598021658127 461.5 C 221.23803209406938 442.25 219.60282684115083 414.35 218.92601271488263 399.5 C 218.24919858861443 384.65 217.98896722156522 370.8125 218.34772078810659 368.75 C 218.8240885401251 366.01132760710857 220.01132760710857 364.22525621533686 222.75 362.1272521662955 C 224.8125 360.54724085775797 230.55 356.64406779502923 235.5 353.4535342491205 C 240.45 350.2630007032117 249.45 344.754927190265 255.5 341.2133708870167 C 261.55 337.6718145837685 269.425 333.30163966702304 273 331.5018710720269 C 276.575 329.7021024770308 281.1875 327.7279125151445 283.25 327.11478226783515 C 286.1573596343875 326.2504961433992 287.12932509444425 326.28088012187084 287.5755350965336 327.25 C 287.89207939962705 327.9375 286.7837168446171 330.975 285.1125071965115 334 C 283.4412975484059 337.025 279.6445244236349 346.025 276.6752335859092 354 C 273.70594274818353 361.975 269.21511644963914 374.8 266.6956195891438 382.5 C 264.1761227286485 390.2 261.97640505997947 398.101529440649 261.80735810321255 400.05895431255334 C 261.63831114644563 402.01637918445766 260.7125 404.3788791844577 259.75 405.30895431255334 C 258.6201267696553 406.4007641717167 257.7945169004451 409.21473846305463 257.4201259455047 413.25 C 257.1011952155323 416.6875 254.86671785908626 431.2 252.45462070895795 445.5 C 249.34095661032887 463.9592053466948 247.7598534627412 476.8655654263903 247.00311543301717 490 C 246.39743942060906 500.5125045198004 246.02458931668616 537.6435645899174 246.1395497584358 576 C 246.2508193890552 613.125 245.95961982335538 645.75 245.49243961243621 648.5 C 244.8836895591239 652.0833338131235 244.11603873918435 653.6416666186876 242.78308285976277 654 C 241.76011685671156 654.275 240.52183537009208 655.85 240.0313462228306 657.5 C 239.5408570755691 659.15 237.9217260874287 667.925 236.4332773602964 677 C 234.06477035075773 691.4406728426409 233.80387249187436 695.1849040378393 234.3428787287861 707 C 234.68160820858776 714.425 236.30872424329283 729.725 237.9586921392418 741 C 239.6086600351908 752.275 241.19294117038598 761.6125 241.47931688411998 761.75 C 241.76569259785398 761.8875 242.45 761.775 243 761.5 C 243.6394574742491 761.1802712628754 243.96126428192267 749.1922322816581 243.8925626928567 728.25 L 243.7851253857134 695.5 L 247.38253954002147 677.5 C 249.3611173248909 667.6 251.72045426028515 654.325 252.62551050756423 648 C 253.77315002216548 639.9797029724117 254.26276724633374 629.6918854887597 254.24363657251186 614 C 254.22028972513746 594.8498091110823 254.38621192506582 592.2640912041364 255.35810291211237 596.6322482932513 C 255.98614631045058 599.4549848545396 256.8375 602.0424848545396 257.25 602.3822482932513 C 257.6625 602.7220117319631 258.45 602.1 259 601 C 259.55 599.9 260.3142152158278 594.8375 260.6982560351729 589.75 C 261.2325343218438 582.6722607428202 261.1151148222319 580.6761292494178 260.1982560351729 581.25 C 259.53921521582777 581.6625 259 582.675 259 583.5 C 259 584.362935041912 257.9466480290466 585.1061774930147 256.5198322614195 585.25 L 254.039664522839 585.5 L 254.0169543820153 571.5 C 254.0044638045623 563.8 254.46232000223466 546.025 255.03441259906504 532 C 255.6065051958954 517.975 256.7345598083142 499.075 257.5412006266623 490 C 258.3478414450105 480.925 259.7162606379467 467.875 260.5821321665205 461 C 261.4480036950943 454.125 263.2668665039727 442.425 264.62404951958354 435 C 265.9812325351943 427.575 268.38887261335225 416.325 269.974360804379 410 C 271.5598489954057 403.675 275.1065969027717 391.3 277.85602282074797 382.5 C 280.60544873872425 373.7 285.4927063318284 358.85 288.7165952498683 349.5 C 291.9404841679082 340.15 295.6061673647362 328.225 296.8625579094861 323 C 298.11894845423603 317.775 299.0013508747266 312.47561731654696 298.823452177243 311.22359403677103 Z " class="odd" fill="#000000"></path><path d="M 440 327.5 C 439.45 327.225 438.6625 327.9926906051284 438.25 329.20597912250764 C 437.72329137003084 330.75519011098305 434.4483512762451 332.8392428979376 427.25 336.20597912250764 C 421.6125 338.84269060512844 416.6625 341.54221489817786 416.25 342.20492199595077 C 415.69282992068406 343.10005064135527 416.33559632296436 343.2286039218113 418.75 342.70492199595077 C 420.5375 342.31721489817784 425.0375 340.5484263145594 428.75 338.7742806990208 C 432.4625 337.00013508348223 436.7375 334.52513508348227 438.25 333.2742806990208 C 439.7625 332.02342631455934 441 330.325 441 329.5 C 441 328.675 440.55 327.775 440 327.5 Z " class="odd" fill="#000000"></path><path d="M 324.5 341.06421340533564 C 323.95 341.05305423294107 321.7 341.86010931610014 319.5 342.85766914568916 C 317.3 343.8552289752782 314.33729860794176 346.2078460750573 312.9162191287595 348.0857071451983 C 311.49513964957725 349.9635682153392 309.1425266365042 353.525 307.68819021081947 356 C 306.2338537851348 358.475 305.034055177193 361.5125 305.02197108205996 362.75 L 305 365 L 308.93597780536993 364.25 L 312.8719556107398 363.5 L 313.57893822778897 366.5 C 313.96777866716604 368.15 314.0422289887557 371.975 313.74438338687713 375 C 313.44440452028726 378.0466660098755 310.2582104122082 388.6406082399586 306.60142296445804 398.75 C 302.97064033400613 408.7875 300 417.9 300 419 C 300 420.1 300.3375 421.00301895910997 300.75 421.00670879802215 C 301.1625 421.0103986369343 307.575 414.89172092389714 315 407.4096472134951 C 322.425 399.927573503093 329.2875 393.3995545439831 330.25 392.90293841547293 C 331.2125 392.4063222869628 332.0117089644634 392.3375 332.02601992102984 392.75 C 332.0403308775962 393.1625 325.62783087759624 400.4795280024774 317.77601992102984 409.0100622277276 C 309.9242089644634 417.54059645297775 301.7 426.74189948992614 299.5 429.45740230983506 C 296.088047063939 433.6688422276852 295.2386963891052 435.7255276856036 293.72256668271075 443.4473400821075 C 292.7449783582016 448.42630303694835 289.48910805918206 467.35 286.4872993515561 485.5 C 283.4854906439301 503.65 279.6719881279646 527.5 278.0128493160771 538.5 C 275.97127083467706 552.0355541890144 273.8628943952617 574.1762810916401 271.4898572420082 607 C 269.56135041315787 633.675 267.1009403293437 663.15 266.0222792779768 672.5 C 264.9436182266099 681.85 262.49098913869875 699.175 260.571992415952 711 C 258.6529956932053 722.825 256.3980551142922 739.25 255.5610133517007 747.5 C 254.7239715891091 755.75 254.14281740937085 762.6139139336694 254.26955961894893 762.7531420748211 C 254.39630182852702 762.8923702159727 258.4624442827732 757.9423702159727 263.30543173949604 751.7531420748211 C 268.14841919621887 745.5639139336695 272.98591919621884 739.0375 274.05543173949604 737.25 C 275.39010184366975 735.0193362960473 275.6079475784434 733.9992707383053 274.75 733.9976748591051 C 274.0625 733.9963960316129 270.575 736.5335470167857 267 739.6357881594892 C 263.425 742.7380293021926 260.3875 744.7640756155952 260.25 744.138113300384 C 260.1125 743.5121509851729 260.9997262165327 741.5375 262.2216138145171 739.75 C 263.4435014125015 737.9625 267.27211806354086 732.9 270.72965081682673 728.5 C 274.18718357011267 724.1 277.01245735358 719.9375 277.00803700230966 719.25 C 277.00361665103935 718.5625 276.6625 718.0186580061481 276.25 718.0414622358846 C 275.8375 718.0642664656212 272.6875 720.7642664656213 269.25 724.0414622358846 C 265.8125 727.3186580061481 262.55 730 262 730 C 261.3662385735283 730 261.33460425692294 729.3590824963255 261.9136237444882 728.25 C 262.4161168039567 727.2875 265.7676124998959 723.125 269.36139195768635 719 C 272.9551714154768 714.875 276.8190407304571 709.8125 277.9477682131982 707.75 C 279.6376563049856 704.6621030163564 279.73515879345746 704 278.5 704 C 277.675 704 274.6375 705.9937163467537 271.75 708.4304807705637 C 268.8625 710.8672451943737 266.3875 712.6672451943737 266.25 712.4304807705637 C 266.1125 712.1937163467537 266.535913667201 710.9875 267.19091926044666 709.75 C 267.84592485369234 708.5125 271.5046738974732 704.125 275.32147269107077 700 C 279.1382714846684 695.875 282.6523578174674 691.7125 283.1305534306241 690.75 C 283.76416117049746 689.4746904136107 283.5931225026194 689 282.5 689 C 281.675 689 278.6375 691.0334138336705 275.75 693.5186974081566 C 272.8625 696.0039809826428 270.1625 698.0289809826428 269.75 698.0186974081566 C 269.3375 698.0084138336705 269.5290297303046 696.9875 270.17562162289914 695.75 C 270.8222135154936 694.5125 274.2712095744027 689.675 277.8400573093637 685 C 281.4089050443247 680.325 285.6045203112567 673.8 287.16364679143476 670.5 C 288.7227732716129 667.2 289.9987772127038 663.9375 289.9992111049702 663.25 C 289.9996449972366 662.5625 288.0107095053164 664.5875 285.57935445625867 667.75 C 283.14799940720087 670.9125 279.3158871411305 675.3 277.06354942054656 677.5 C 274.8112116999626 679.7 272.97550219464625 681.1625 272.9841949642879 680.75 C 272.99288773392954 680.3375 275.7597327524368 675.6125 279.13273944985946 670.25 C 282.50574614728214 664.8875 286.790393253746 657.575 288.65417746422355 654 C 290.5179616747011 650.425 291.80822892226433 647.3875 291.5214380143641 647.25 C 291.23464710646385 647.1125 290.55 647.225 290 647.5 C 289.45 647.775 285.7375 652.801887004637 281.75 658.6708600103045 C 277.7625 664.539833015972 274.3875 668.814833015972 274.25 668.1708600103045 C 274.1125 667.526887004637 275.8489530561314 663.2875 278.1087845691809 658.75 C 280.3686160822304 654.2125 283.2625931007791 648.7 284.53984461040034 646.5 C 285.8170961200215 644.3 287.7931430638901 640.1375 288.93106004121944 637.25 C 290.0689770185487 634.3625 290.55 632 290 632 C 289.45 632 286.525 635.825 283.5 640.5 C 280.475 645.175 277.7646117671794 648.8875 277.47691503817646 648.75 C 277.18921830917355 648.6125 279.87842647152354 642.425 283.452933176732 635 C 287.02743988194055 627.575 290.222521270219 620.15 290.5531140395731 618.5 L 291.15419180203503 615.5 L 288.3270959010175 618.6438575808975 C 286.7721931554579 620.372979250391 284.1974042140306 623.972979250391 282.6053426978458 626.6438575808975 C 281.013281181661 629.3147359114039 279.55078118166097 630.9375 279.3553426978458 630.25 C 279.15990421403063 629.5625 281.735974585591 623.4875 285.0799435235355 616.75 C 288.42391246148003 610.0125 291.00854598944306 603.6 290.8235735856755 602.5 C 290.56991172098344 600.9915152450959 289.15417997248926 602.4660609803838 285.0628906257083 608.5 C 282.07948740149385 612.9 279.4948538735309 615.9375 279.31926056356826 615.25 C 279.1436672536057 614.5625 281.7 608.825 285 602.5 C 288.44058346212023 595.9055483642696 290.8681145350884 590.0402187982951 290.69082297556577 588.75 C 290.41319703711196 586.7296093753598 289.84932126457926 587.0612673619906 285.16526250482934 592 C 282.29625160936314 595.025 279.7353812703585 597.1625 279.4744395292636 596.75 C 279.21349778816864 596.3375 279.50872547833757 594.9875 280.1305010629724 593.75 C 280.7522766476073 592.5125 284.296848766141 587.225 288.0073279930474 582 C 291.7178072199537 576.775 295.48408174161614 571.0375 296.3768269300749 569.25 C 297.26957211853374 567.4625 297.6625 565.7959032426055 297.25 565.5464516502345 C 296.8375 565.2970000578636 292.7810460806511 568.7845000578635 288.23565795700245 573.2964516502345 C 283.69026983335385 577.8084032426056 279.64026983335384 581.1738658012167 279.23565795700245 580.7752573360373 C 278.8310460806511 580.3766488708578 279.2875 578.9141488708577 280.25 577.5252573360373 C 281.2125 576.1363658012168 285.97629652334996 570.3875 290.83621449633324 564.75 C 295.6961324693166 559.1125 301.0890837768913 552.475 302.8205507353882 550 C 304.5520176938852 547.525 305.7507211705352 545.1625 305.484336239055 544.75 C 305.21795130757476 544.3375 304.2125 544.3966468199836 303.25 544.8814373777415 C 302.2875 545.3662279354993 297 549.8735288592146 291.5 554.8976616526645 C 286 559.9217944461144 281.1625 564.0251476261308 280.75 564.016224274923 C 280.3375 564.0073009237153 281.4625 562.0959233271028 283.25 559.7687185046728 C 285.0375 557.4415136822429 290.77686417823674 551.0290136822429 296.00414261830394 545.5187185046728 C 301.2314210583711 540.0084233271028 306.693553992594 533.925 308.142215805466 532 C 309.590877618338 530.075 312.40151344010127 525.9125 314.3880731871621 522.75 C 316.3746329342229 519.5875 317.55 517 317 517 C 316.45 517 308.3355013699803 524.5375 298.9677808221785 533.75 C 289.6000602743767 542.9625 281.7104281679184 550.275 281.435265030049 550 C 281.1601018921795 549.725 282.6903511013509 547.25 284.8358188282076 544.5 C 286.98128655506423 541.75 293.80181101836234 534.1 299.9925398577589 527.5 C 306.1832686971555 520.9 312.5425181180038 513.5875 314.1242052374218 511.25 C 315.7058923568398 508.9125 317 506.775 317 506.5 C 317 506.225 316.4375 505.9944666387582 315.75 505.98770364168485 C 315.0625 505.9809406446115 311.35 508.71852235642655 307.5 512.0712185568293 C 303.65 515.4239147572322 296.8363379871694 522.066948118474 292.3585288603764 526.8335149151445 C 287.8807197335835 531.600081711815 283.83071973358346 535.173727899279 283.3585288603764 534.7749508872866 C 282.8863379871694 534.3761738752943 283.6844062912998 532.5761738752943 285.13201398066633 530.7749508872866 C 286.5796216700328 528.973727899279 294.22962167003277 520.7493951601934 302.13201398066633 512.4986559115409 C 310.03440629129983 504.2479166628884 317.5125 496.03541666288834 318.75 494.2486559115409 C 319.9875 492.4618951601934 320.775 490.775 320.5 490.5 C 320.225 490.225 318.7625 490.63050226289744 317.25 491.40111613977217 C 315.7375 492.17173001664685 309.1 497.78489555070325 302.5 503.8748173265642 C 295.9 509.9647391024252 290.1625 514.9592368395278 289.75 514.9737011867921 L 289 515 L 289.75 513.5655430569686 C 290.1625 512.7765917383012 295.92741492983686 506.3640917383013 302.5609220663042 499.3155430569686 C 309.1944292027715 492.2669943756359 316.79826436389556 483.8 319.4583335354688 480.5 C 322.1184027070421 477.2 323.7784877772052 474.3875 323.14741146916464 474.25 C 322.51633516112406 474.1125 320.5495436204902 475.0125 318.7767636010893 476.25 C 317.0039835816885 477.4875 310.1414835816885 483.55742424477484 303.5267636010893 489.73872054394405 C 296.9120436204902 495.9200168431133 291.1625 500.9825168431133 290.75 500.98872054394405 C 290.3375 500.99492424477484 289.992621743816 500.6625 289.98360387514674 500.25 C 289.97458600647747 499.8375 297.0212191971812 492.075 305.6427887433773 483 C 314.26435828957347 473.925 322.4842365457574 464.80565877387966 323.90918486823057 462.7347972752881 C 325.33413319070377 460.6639357766965 326.173865801215 458.63893577669654 325.7752573360334 458.2347972752881 C 325.3766488708518 457.83065877387963 323.80164887085175 458.3769742247354 322.2752573360334 459.4488316105232 C 320.74886580121506 460.520688996311 314.3217068748431 466.145688996311 307.99268194409575 471.9488316105232 C 301.6636570133484 477.7519742247354 295.4614893823527 483.4 294.2100872085497 484.5 C 292.8099243329932 485.7307627358769 291.94734707150593 486.01922670992303 291.9674052644539 485.25 C 291.98533236900425 484.5625 298.6036034861731 477.1375 306.6746744137179 468.75 C 314.74574534126276 460.3625 323.18324534126276 451.12666620683154 325.4246744137179 448.2259249040701 C 327.6661034861731 445.3251836013086 329.16934122612014 442.6251836013086 328.76520272471146 442.2259249040701 C 328.3610642233027 441.82666620683153 326.33606422330274 442.6771742595196 324.26520272471146 444.11594279893245 C 322.1943412261201 445.5547113383453 314.7625 452.1922113383453 307.75 458.86594279893245 C 300.7375 465.5396742595196 294.6625 470.778422366356 294.25 470.5076052585689 C 293.8375 470.2367881507818 296.2 467.11306053837933 299.5 463.56598834211894 C 302.8 460.01891614585855 310 452.2038690559226 315.5 446.19921703115006 C 321 440.19456500637756 326.85 433.41190445573983 328.5 431.1266380297328 C 330.15 428.84137160372575 331.1625 426.75299632730577 330.75 426.48580408213274 C 330.3375 426.2186118369597 329.1 426.45 328 427 C 326.9 427.55 319.8125 433.87837221037483 312.25 441.06304935638855 C 304.6875 448.2477265024023 297.7125 454.54772650240227 296.75 455.06304935638855 C 295.7875 455.5783722103749 294.9865168029513 455.6625 294.97003733989186 455.25 C 294.9535578768324 454.8375 303.1660578768324 445.9149181348968 313.22003733989186 435.42204029977074 C 323.27401680295134 424.92916246464466 332.175 415.14661933606016 333 413.68305556958296 C 333.825 412.2194918031057 334.15614273274787 410.6795736682089 333.7358727394396 410.2610152698122 C 333.31560274613145 409.8424568714155 331.5156027461315 410.5973228238686 329.7358727394396 411.9384951641524 C 327.9561427327478 413.27966750443625 321.1 419.4332926728474 314.5 425.61321776062175 C 307.9 431.7931428483961 301.2625 437.7833200245275 299.75 438.92472259646934 C 298.2375 440.0661251684112 297 440.55 297 440 C 297 439.45 304.7926808923754 431.0125 314.3170686497232 421.25 C 323.84145640707095 411.4875 332.63201983789804 402.15 333.8516540515611 400.5 C 335.3741029100105 398.44033277494174 336.06625351689297 396.08950083758737 336.0598636088384 393 C 336.05473033284596 390.5180768889593 336.67697234479783 387.8273077036802 337.44736726100473 387 C 338.21561322685676 386.175 339.10871624725587 384.375 339.43204063966937 383 C 339.7553650320829 381.625 339.67792495778104 379.89267558006924 339.2599515856652 379.1503901779316 C 338.67320331903267 378.1083748197616 337.98719434872635 378.0513964140645 336.25 378.9003901779316 C 335.0125 379.50517558006925 329.6125 384.05311149378184 324.25 389.00691443062624 C 318.8875 393.9607173674707 314.1625 398.0107173674707 313.75 398.00691443062624 C 313.3375 398.00311149378183 313 397.55 313 397 C 313 396.45 316.4950942351048 392.5125 320.76687607801057 388.25 C 325.03865792091636 383.9875 332.46876262072567 377.8 337.27821985536457 374.5 L 346.02268755470794 368.5 L 352.011343777354 372.75 C 355.3051046998093 375.0875 358.23997506647765 376.8875 358.5332779255059 376.75 C 358.8265807845341 376.6125 355.28532252449537 372.225 350.6638151254198 367 C 346.0423077263442 361.775 338.4898326598665 353.80651313218016 333.8805371999139 349.29225140484476 C 329.2712417399613 344.77798967750937 325.05 341.07537257773026 324.5 341.06421340533564 Z " class="odd" fill="#000000"></path><path d="M 325.91030415322086 353.67944571584917 C 328.8859714374924 355.23075057213214 333.3859714374924 358.40979059342254 335.91030415322086 360.7439790964946 C 338.4346368689494 363.07816759956665 340.16934122611997 365.32816759956665 339.7652027247111 365.7439790964946 C 339.3610642233022 366.15979059342254 337.3360642233022 365.3334188801029 335.2652027247111 363.90759751133976 C 333.19434122612 362.48177614257656 329.025 358.9625267147087 326 356.08704322718893 L 320.5 350.8588914316984 L 325.91030415322086 353.67944571584917 Z " class="even" fill="#ffffff"></path><path d="M 324.25 363.11999404099987 C 325.4875 363.7359907635498 327.9706559589245 365.6484907635498 329.7681243531655 367.36999404099987 C 331.5655927474065 369.09149731844997 333.02809274740656 370.8375 333.0181243531655 371.25 C 333.0081559589245 371.6625 331.7625 371.72147426148643 330.25 371.3810539144142 C 327.9163628953609 370.8558191685619 327.0220413558354 371.3478844085339 324.3431714590868 374.6310539144142 C 322.60691576158456 376.7589742614864 320.80691576158455 378.13992723436513 320.3431714590868 377.69983829858916 C 319.8794271565891 377.2597493628132 320.0567762202273 376.1347493628132 320.73728048939404 375.19983829858916 C 321.41778475856074 374.26492723436513 322.6552847585607 372.2625 323.48728048939404 370.75 C 324.8214629910073 368.32456563909403 324.82594762864335 367.7934582296674 323.5252782070005 366.25 C 322.7141812208508 365.2875 322.03918122085076 363.9375 322.0252782070005 363.25 C 322.0058266283987 362.288125083328 322.5186251499904 362.258158701112 324.25 363.11999404099987 Z " class="even" fill="#ffffff"></path><path d="M 213 395 C 211.26743666336998 395 209.99939004871723 395.52809860973747 209.9985562561813 396.25 C 209.99776219708102 396.9375 210.56026219708102 402.3416469402739 211.2485562561813 408.25921542283083 C 212.30819488973714 417.36939747064105 212.7682173646382 419.01701842484704 214.25 419.00921542283083 C 215.8189324765094 419.00095349359424 216 417.75839412463586 216 407 L 216 395 L 213 395 Z " class="odd" fill="#000000"></path><path d="M 383.75 449.4941028161908 C 383.6125 449.2158593650957 382.77915079132083 449.7783593650957 381.8981128696018 450.7441028161908 C 381.01707494788275 451.70984626728585 372.64948336165673 463.75 363.3034649002106 477.5 C 353.95744643876446 491.25 336.41975184708946 517.35 324.3308102520439 535.5 C 311.9082671477804 554.1508600086864 301.40497842576025 571.0002289378804 300.17545822143506 574.25 C 298.9789561996458 577.4125 298.0118389764953 581.0125 298.0263088366563 582.25 C 298.0439451551804 583.7583037383072 299.2801055913351 582.1874004729812 301.7763088366563 577.4845285671032 C 303.8243389764953 573.6260192790099 308.37442630336784 566.65101927901 311.8876140074841 561.9845285671032 C 315.40080171160037 557.3180378551964 323.46008436383863 545.625 329.797131012458 536 C 336.1341776610774 526.375 347.91622516489633 508.15 355.97945879872236 495.5 C 364.04269243254834 482.85 373.64590978031003 467.4375 377.3199417937484 461.25 C 380.9939738071868 455.0625 383.8875 449.77234626728585 383.75 449.4941028161908 Z " class="odd" fill="#000000"></path><path d="M 481.1650126390705 478 C 480.6903232921917 471.9670688933431 480.2830379224187 470.2256084980421 479.76175809177687 472 C 479.35781129292127 473.375 479.0824466833282 488.675 479.1498367371257 506 C 479.2172267909232 523.325 479.4171003569503 536.6 479.5940002171861 535.5 C 479.77090007742186 534.4 480.3472273069606 522.925 480.87472739393877 510 C 481.402227480917 497.075 481.5328558412263 482.675 481.1650126390705 478 Z " class="odd" fill="#000000"></path><path d="M 480.75 632.9654145981622 C 480.6125 632.9463926271512 479.375 633.7721097206971 478 634.8003414727084 C 476.625 635.8285732247197 473.5875 639.6691366555467 471.25 643.3349268745462 C 468.9125 647.0007170935459 466.55 651.125 466 652.5 C 465.2440371209595 654.3899071976012 465.3050464011994 654.9206076032218 466.25 654.6746708186607 C 466.9375 654.4957397689242 469.1833739175364 652.1332397689241 471.2408309278587 649.4246708186607 C 473.298287938181 646.7161018683973 476.335787938181 641.9125 477.9908309278587 638.75 C 479.6458739175364 635.5875 480.8875 632.984436569173 480.75 632.9654145981622 Z " class="odd" fill="#000000"></path><path d="M 509.75 635.5525241063858 C 506.4400107139493 634.1821672641265 506 634.1760042855797 506 635.5 C 506 636.325 506.45 638.125 507 639.5 C 507.72046121994475 641.3011530498619 508.4436632928692 641.7903459149586 509.58712609671363 641.25 C 510.5825581682795 640.7796063398994 511.50887056949546 641.0592126797987 512.0718133221966 642 C 512.5654719430197 642.825 512.9762651994986 644.7375 512.984687225483 646.25 C 512.9932759060374 647.7924292637738 513.5488957891938 648.9860346104786 514.25 648.9681966281296 C 514.9375 648.9507047736008 516.4 648.2680623172482 517.5 647.4512133917906 C 518.6 646.6343644663328 520.2875 645.9736759836745 521.25 645.983016763661 C 522.2125 645.9923575436475 524.0125 646.471807050439 525.25 647.0484601120866 C 526.4875 647.6251131737342 528.5125 649.6501131737342 529.75 651.5484601120866 C 530.9875 653.446807050439 534.3625 656.3365339340036 537.25 657.970075408897 C 540.1375 659.6036168837902 543.625 660.9631810546955 545 660.9913291220198 L 547.5 661.0425074262457 L 544.5 657.9245610815319 C 542.85 656.2096905919394 537.225 651.9946483479566 532 648.5578005393479 C 526.775 645.1209527307392 520.475 641.1381002628287 518 639.7070172773247 C 515.525 638.2759342918205 511.8125 636.406412364898 509.75 635.5525241063858 Z " class="odd" fill="#000000"></path><path d="M 207.5 750.9590374076429 C 206.4 750.9510112778837 205.15 751.2944444444445 204.72222222222223 751.7222222222222 C 204.29444444444445 752.15 203.95694444444445 754.4125 203.97222222222223 756.75 C 203.98781050563775 759.1350073625742 204.54852724630172 761.2658564981793 205.25 761.6058415966842 C 205.9375 761.9390544748604 206.85821457341154 761.8265544748605 207.29603238535898 761.3558415966842 C 207.73385019730642 760.8851287185079 208.40885019730644 758.3565668334393 208.79603238535898 755.7368151854207 L 209.5 750.9736303708413 L 207.5 750.9590374076429 Z " class="odd" fill="#000000"></path></g></svg>