<svg id="svg" viewBox="0 0 1310 1252" xmlns="http://www.w3.org/2000/svg" xmlns:xlink="http://www.w3.org/1999/xlink" version="1.1" width="1080" height="720" preserveAspectRatio="xMidYMid meet" buffered-rendering="static" style="background: rgb(255, 255, 255);"><g><path d="M 455 0 L 0 0 L 0 447 L 0 894 L 210 894 L 420 894 L 420 887 L 420 880 L 434 880 L 448 880 L 448 887 L 448 894 L 672.25 893.75 L 896.5 893.5 L 896.75 886.75 L 897 880 L 903.5 880 L 910 880 L 910 666 L 910 452 L 903.5 452 L 897 452 L 897 438.5 L 897 425 L 903.5 425 L 910 425 L 910 212.5 L 910 0 L 455 0 Z " class="odd" fill="#000000"></path><path d="M 424.3735141867335 124.69942750280555 C 428.2930813840301 124.8091126293486 435.1 125.1263897527575 439.5 125.40448777704756 C 443.9 125.68258580133764 447.5 125.98165263045365 447.5 126.06908073063872 C 447.5 126.15650883082378 448.85 126.3729153957177 450.5 126.54998420818075 C 452.15 126.72705302064378 455.3 127.158434256482 457.5 127.50860917671011 C 459.81934180338834 127.8777797817025 462.02520568644115 128.95509691594586 462.75 130.07264542492607 C 463.6059587121223 131.3924341768327 464.9450726155055 131.92119174242447 466.9980126593956 131.75 C 468.6469196220632 131.6125 470.0038103705959 131.05 470.01332543391266 130.5 C 470.0228404972295 129.95 470.4668440519688 130.175 471 131 C 471.6462496339773 132 471.9744787091383 132.08333333333331 471.98468722548296 131.25 C 471.99344036418137 130.5354708752596 473.7135068008307 131.28513010062304 476 133 C 478.2 134.65 480 136.675 480 137.5 C 480 138.325 480.675 139.225 481.5 139.5 C 482.325 139.775 483.45 141.35 484 143 C 484.55 144.65 485.9 146.225 487 146.5 C 488.1 146.775 489.0679317210581 147.5625 489.15095938012905 148.25 C 489.23398703920003 148.9375 489.442789157677 150.85 489.6149640878556 152.5 C 489.78713901803417 154.15 490.3169129234078 158.425 490.7922394331303 162 C 491.2675659428528 165.575 491.3127084138685 169.175 490.89255603538743 170 C 490.4724036569064 170.825 489.41507884873795 173.075 488.54294535056874 175 C 487.6708118523995 176.925 486.9668672629068 179.2875 486.97862404058503 180.25 C 486.99621983483104 181.6905266838676 486.07158005160284 182.00938975553464 481.75 182.0530968950441 C 478.8625 182.08230018731834 473.8 182.348540002917 470.5 182.64474092970772 C 467.2 182.94094185649845 461.575 184.06239638493216 458 185.13686210400476 C 454.425 186.2113278230774 449.7781476478562 187.63258800747877 447.6736614396805 188.29521806934116 C 445.56917523150474 188.95784813120352 443.1144196418245 190.625 442.2186490181688 192 C 441.32287839451305 193.375 439.559164760125 195.4 438.2992853861952 196.5 C 437.03940601226543 197.6 435.8941616019457 199.625 435.7542978077069 201 C 435.5255512414115 203.2488059212747 435.82655230234286 203.47488059212748 438.75 203.25 C 441.4990890955892 203.0385316080316 442.01826130324343 203.34678447228438 442.11848261840305 205.25 L 442.23696523680616 207.5 L 442.11848261840305 208.75 C 442.05331717828136 209.4375 442.9 210 444 210 C 445.5 210 445.875 210.5 445.5 212 C 445.052797640955 213.78880943617992 445.29038702525264 213.901010624328 447.75 213.06255872533848 C 449.2625 212.54696602427464 450.8499999999999 212.43446602427463 451.27777777777754 212.81255872533848 C 451.7055555555552 213.19065142640233 452.0430555555552 212.9375 452.02777777777754 212.25 C 452.0124999999999 211.5625 452.9 210.1 454 209 C 455.1 207.9 456.45 207 457 207 C 457.55 207 458 207.9 458 209 C 458 210.1 459.125 212.125 460.5 213.5 C 461.875 214.875 464.125 216 465.5 216 C 466.94637423584953 216 469.0678312849457 214.84101165943446 470.5337062771208 213.25 C 471.9272447295372 211.7375 473.03220832155574 209.6 472.9891809260509 208.5 C 472.9189589522489 206.70476767706097 473.07710390296916 206.65357575779572 474.5338089942121 208 C 475.54973486254414 208.9390145099565 475.9403772398327 210.3414782350652 475.578334345282 211.75 C 475.23178031839683 213.0982625869495 475.601158275367 214.601158275367 476.5 215.5 C 477.325 216.325 478 217.225 478 217.5 C 478 217.775 477.2125 218.20591155242212 476.25 218.45758122760472 C 475.2875 218.70925090278732 478.325 218.7520873702767 483 218.55277337758116 C 489.26694564006164 218.28558835992837 492.4851710411493 217.6399515981395 495.25 216.0951921499764 C 497.3125 214.9428364674894 499.3375 214.171394804956 499.75 214.3808773443467 C 500.1625 214.59035988373736 500.7731963817815 216.27785988373736 501.10710307062544 218.1308773443467 C 501.4410097594694 219.983894804956 501.2930359346465 223.075 500.77827234879675 225 C 500.26350876294697 226.925 497.2903123811655 233.6504706696901 494.1711692781713 239.94549037708907 C 489.1730705193594 250.0325973636343 488.49851552816034 252.10954719726504 488.4874921113774 257.4454903770891 C 488.48061277263497 260.7754706696901 488.64936277263496 263.95 488.8624921113774 264.5 C 489.07562145011985 265.05 489.63685925146734 264.825 490.10968722548296 264 C 490.78010572357425 262.8302399787644 490.9727457111868 262.9953599681466 490.98468722548296 264.75 C 490.99310925146733 265.9875 490.50728273640505 267.1125 489.90507274756675 267.25 C 489.30286275872845 267.3875 488.74036275872845 268.92438438170245 488.65507274756675 270.6652986260055 C 488.56978273640505 272.40621287030854 488.1718750000004 274.2062128703085 487.7708333333342 274.6652986260055 L 487.04166666666845 275.5 L 487.7708333333342 278.27314814814815 C 488.28213006974556 280.21769891075616 488.1265086909919 281.03937979057395 487.25 281.02314814814815 C 486.5625 281.0104166666667 486.0830241632535 281.7875 486.1844981405634 282.75 C 486.28597211787326 283.7125 485.83597211787327 285.9625 485.1844981405634 287.75 C 484.5330241632535 289.5375 483.325 291 482.5 291 C 481.675 291 481 291.45 481 292 C 481 292.55 479.3125 294.06778517766287 477.25 295.3728559503619 C 475.1875 296.6779267230609 471.3625 299.82792672306095 468.75 302.3728559503619 C 466.1375 304.91778517766284 463.55 307 463 307 C 462.45 307 462.0040130278753 307.5625 462.00891783972287 308.25 C 462.0138226515704 308.9375 459.53882265157046 312.0875 456.50891783972287 315.25 C 453.4790130278753 318.4125 451.0043297967128 321.3375 451.00962177047285 321.75 C 451.0149137442329 322.1625 449.3274137442329 324.2109912348305 447.25962177047285 326.3022027440677 C 445.1918297967128 328.3934142533049 442.15 330.54252398167586 440.5 331.0780021404475 C 438.85 331.61348029921913 435.925 332.11597074439163 434 332.1946475741641 C 432.075 332.27332440393656 427.35 332.2199887483257 423.5 332.0761238950288 C 419.65 331.93225904173187 414.0723337773216 331.06877736172896 411.10518617182584 330.1572757172445 C 407.4737117676192 329.04169424593294 404.4335243383021 327.1925669873844 401.8039450375364 324.5 C 399.04584956144777 321.67583842221154 398.280030061986 320.3123959788681 399.19875886571054 319.861803398875 C 399.91444148956975 319.51079526825623 400.1625 318.72329526825627 399.75 318.111803398875 C 399.3375 317.50031152949373 399.69503640798143 316.4375 400.54452535106986 315.75 C 401.8070265052802 314.72824503711144 402.08022712972 314.77389404453373 402.04072778715215 316 C 401.99910173603445 317.2921214850664 403.9677770519991 317.4181309835055 416.2462024360823 316.90925340562006 C 426.3468161572849 316.4906349195506 431.5198084674852 315.84025102004324 434 314.6771248041688 C 435.925 313.77436470027953 438.98373667952205 311.1152006677505 440.7971926211601 308.7678713985487 C 442.6106485627982 306.4205421293469 444.3585875898896 303.375 444.6815015702522 302 C 445.0044155506147 300.625 445.99567887109265 298.69783236900423 446.88430894909203 297.7174052644539 C 447.8462624847386 296.65608026205325 449.91616263958946 295.9336611388659 452 295.93196984872446 C 453.925 295.9304074746237 456.5531488311227 295.3825751056194 457.8403307358282 294.7145645842706 L 460.18066147165644 293.5 L 457.5903307358282 291.75 C 455.7643597578029 290.5163933538114 453.0081970638704 289.99619310230514 448.25 289.9870988444819 C 444.3128980786146 289.9795739312703 438.89546474202353 289.14612264871784 435.25 287.9870988444819 C 431.8125 286.89419448001684 427.5375 286.0448560114078 425.75 286.0996800253506 L 422.5 286.1993600507012 L 425 287 C 427.0621016060945 287.66040037014096 427.1496812848756 287.81595327774653 425.5 287.8880650726886 C 424.4 287.936148890553 422.02708333333334 288.3185049019608 420.22685185185185 288.7377450980392 C 417.48202177037757 289.37696461697146 416.9574400408089 289.21753291484765 416.97685185185185 287.75 C 416.99135065845553 286.653890220761 415.9724582245184 285.7599413428817 414.25 285.3575333647472 C 412.7375 285.0041767153582 409.3625 285.22917671535816 406.75 285.8575333647472 C 404.1375 286.48589001413626 399.1875 287.01975177082596 395.75 287.0438928240577 C 392.3125 287.06803387728945 387.925 287.68354408545974 386 288.4116932866584 L 382.5 289.7356009252014 L 379.5 287.52075910108704 C 377.85 286.30259609782416 374.8125 282.53708588965384 372.75 279.1529586384863 C 370.6875 275.76883138731887 369 272.55 369 272 C 369 271.45 368.55 271 368 271 C 367.45 271 367.1808718928771 270.2125 367.4019375397269 269.25 C 367.6230031865767 268.2875 366.9454857528568 265.7 365.8963432425717 263.5 C 364.8472007322865 261.3 363.4568456518249 257.025 362.8066652859903 254 C 362.15648492015566 250.975 361.58849246934875 248.275 361.5444598397527 248 C 361.50042721015666 247.725 360.5054009803529 245.475 359.33329044018876 243 C 358.1611799000246 240.525 356.4941967257278 236.25 355.62888338619587 233.5 C 354.76357004666386 230.75 353.8394115432484 224.9 353.5751978230503 220.5 C 353.3109841028523 216.1 352.8484771616758 211.4875 352.54740462043605 210.25 C 352.19844466847985 208.8156681317815 352.54413229370215 207.7281106227395 353.5009752289277 207.25 C 354.40890077504594 206.7963321802618 355.6930068895137 207.15845854371062 356.7509752289277 208.16652135905963 C 357.7129388530175 209.08310810654243 359.625 209.79980441456544 361 209.75917982133302 C 362.375 209.71855522810057 365.86948724316443 210.09362061652374 368.7655272070321 210.5926584622734 C 372.21404812349766 211.18689834523315 374.0314476140691 211.15492414735985 374.0321938736986 210.5 C 374.03282057649756 209.95 373.4633333333331 208.87628027062138 372.76666666666654 208.11395615693638 C 371.71060946995857 206.95837070265722 371.8741089269001 206.83366772702385 373.75 207.36395615693638 L 376 208 L 375.5 204.5 C 375.1575535722611 202.10287500582768 375.39388393065275 200.9966931510907 376.25 200.98950563652153 C 376.9375 200.98373373660837 377.95 202.4413813688485 378.5 204.2287225970552 C 379.1274380602706 206.26771516663277 380.4314048493235 207.8136789632754 382 208.3782709856144 C 383.375 208.87318137111527 385.7375 208.99053373887511 387.25 208.63905402508072 C 388.82087731977464 208.27400839813163 390.75035079650706 206.71639531441915 391.75 205.00632262906453 C 392.7125 203.35980007505003 394.0625 202.00980007505 394.75 202.00632262906453 C 395.4375 202.00284518307905 396.5625 203.5505452392113 397.25 205.4456560871362 C 398.2123933315449 208.0985172399818 399.1403706940172 208.96133724534707 401.2831877884516 209.1956560871362 C 403.7178764141664 209.46189132502766 403.9996120266218 209.21826438754468 403.5331877884516 207.25 L 403 205 L 405.5 206 C 407.58365335144805 206.83346134057922 408.6245199728279 206.53567910444895 411.75 204.21193327023303 C 413.8125 202.6784965688612 416.0625 199.9784965688612 416.75 198.21193327023303 L 418 195 L 413.25 190.19109931571785 C 410.23768839218053 187.14143461000958 407.0366834592164 184.9776685766738 404.5 184.27640902682901 C 402.3 183.66822474429537 396.45 181.78592248669858 391.5 180.0935151210584 C 386.55 178.40110775541822 380.5875 176.56271838541818 378.25 176.0082054099472 C 375.9125 175.45369243447624 373.98591214239485 174.4375 373.96869364976635 173.75 C 373.9514751571379 173.0625 375.9665561842388 170.25 378.44665148776835 167.5 C 380.92674679129794 164.75 382.9510183496843 162.275 382.945032728627 162 C 382.93904710756965 161.725 384.51959834990845 159.475 386.4573688227132 157 C 388.395139295518 154.525 389.9849555947368 152.1625 389.9902939320882 151.75 C 389.9956322694397 151.3375 389.4375 151.3329634122156 388.75 151.73991869381246 C 387.92088849166674 152.2306987772291 387.75253309500005 152.0623433805624 388.25 151.23991869381246 C 388.6625 150.5579634122156 389.5330654020428 150.3375 390.18458978231723 150.75 C 391.03005690945236 151.28529108119687 391.17319618865446 150.8558732435906 390.68458978231723 149.25 C 390.30806540204276 148.0125 390.45 146.775 391 146.5 C 391.6013515235362 146.1993242382319 391.70959845266117 146.69763483381158 391.271534786951 147.75 C 390.75455467563205 148.99194701215936 390.89971267215793 149.28226300521115 391.771534786951 148.75 C 392.4640105749898 148.32723113726593 392.7818459084894 146.9092295424469 392.5 145.5 C 392.1666666666667 143.83333333333334 392.5 142.83333333333334 393.5 142.5 C 394.325 142.225 394.99442890858427 141.4375 394.987619796854 140.75 C 394.9808106851237 140.0625 397.28605312149824 137.025 400.1103807665752 134 C 404.15090926746694 129.67238640442363 406.5246494827018 128.07367767111867 411.2462751564548 126.5 C 415.38191035520117 125.12162796929499 419.4620398256222 124.56198485679529 424.3735141867335 124.69942750280555 Z " class="even" fill="#ffffff"></path><path d="M 372 185.41193394198734 C 375.575 185.7754584244117 382.05919436170643 187.06898784845635 386.409320803792 188.28644377319765 C 392.55219417623476 190.00563002715637 394.95307161667193 191.22584666803914 397.159320803792 193.75 C 398.7216943617064 195.5375 399.8875 197.2588955201626 399.75 197.57532337813916 C 399.6125 197.8917512361157 397.25 197.47042337773715 394.5 196.63903924840906 C 391.75 195.80765511908098 384.775 194.63066741400613 379 194.0235110149094 C 371.8082540216412 193.26740459214946 367.8698563768302 192.3808820356184 366.5 191.2097951446395 C 365.4 190.2694078150878 364.1887483391327 189.05 363.8083296425171 188.5 C 363.4279109459015 187.95 363.6529109459015 186.88147057595538 364.3083296425171 186.1254901687897 C 365.2103751991336 185.08504263396316 367.07976674825414 184.91161918779207 372 185.41193394198734 Z " class="even" fill="#ffffff"></path><path d="M 475.0028738662322 192.25 L 487 192 L 489.75 194.6414622905601 L 492.5 197.2829245811202 L 489.75 199.6414622905601 L 487 202 L 472.25 202.02341771406077 C 464.1375 202.0362974567942 456.6 202.16103391832897 455.5 202.30060985080468 C 454.4 202.4401857832804 451.7 203.1698582970564 449.5 203.92210432586245 C 447.3 204.67435035466852 445.1200504930666 205.78711389313375 444.65566776237023 206.39491218911854 C 444.14361015866075 207.06510881446238 444.04522630598063 206.81131303123888 444.40566776237023 205.75 C 444.7352034222716 204.77968850027852 444.4430796426582 203.7813445703033 443.75 203.50923092769415 L 442.5 203.0184618553883 L 444.75 203.50923092769415 C 445.9875 203.77915391746237 447.225 203.55 447.5 203 C 447.775 202.45 447.55 202 447 202 C 446.45 202 446 201.55 446 201 C 446 200.45 447.0125 199.75033124957304 448.25 199.44518055460674 C 449.4875 199.14002985964044 453.3125 197.79002985964044 456.75 196.44518055460674 C 460.1875 195.10033124957303 463.0012932398045 193.6625 463.0028738662322 193.25 C 463.00445449266 192.8375 468.40445449265997 192.3875 475.0028738662322 192.25 Z " class="even" fill="#ffffff"></path><path d="M 325 193 C 326.1 193 328.35 194.35 330 196 C 331.65 197.65 333.0200364079815 200.0125 333.04452535106986 201.25 L 333.0890507021398 203.5 L 331.29452535106986 202.04745388911857 C 330.30753640798144 201.24855352813375 328.44617992382746 199.67355352813377 327.15817760850547 198.54745388911857 C 325.8701752931835 197.42135425010335 324.4076752931835 195.7125 323.90817760850547 194.75 C 323.18887021874673 193.36394079716484 323.415932339617 193 325 193 Z " class="even" fill="#ffffff"></path><path d="M 386 198.96666666666667 C 388.00877192982455 198.96666666666667 388.2543859649123 199.21555555555557 387.25 200.23333333333335 L 386 201.5 L 384.75 200.23333333333335 C 383.7456140350877 199.21555555555557 383.99122807017545 198.96666666666667 386 198.96666666666667 Z " class="even" fill="#ffffff"></path><path d="M 465 206.1578947368421 C 466.375 206.1578947368421 466.9375 206.34736842105264 466.25 206.57894736842104 L 465 207 L 463.75 206.57894736842104 C 463.0625 206.34736842105264 463.625 206.1578947368421 465 206.1578947368421 Z " class="even" fill="#ffffff"></path><path d="M 314.6180844119465 209.25 C 314.90444790586264 210.56216459874636 315.3752874867888 210.74980834214077 316.5 210 C 317.325 209.45 318.45 209.225 319 209.5 C 319.5548008514489 209.77740042572444 319.9910726347076 213.89549254982225 319.9799474789621 218.75 C 319.96226320521083 226.46660555955037 320.3111610142121 228.20861333059403 322.9341493879957 233.5 C 325.04017111452526 237.74850350105163 326.9526855894732 240.0838321663161 329.4857393321249 241.5 C 331.45327386485667 242.6 333.04888300579154 243.8375 333.0315374230913 244.25 C 333.0141918403911 244.6625 332.1 245 331 245 C 329.8764392748156 245 327.42797452954045 243.1375665410169 325.4126996230507 240.75 C 323.4396844157285 238.4125 321.0263735382394 234.925 320.04978656196374 233 C 319.07319958568814 231.075 317.56493200150436 227.25 316.69808081933314 224.5 C 315.8312296371619 221.75 314.92267850002696 216.8 314.6790782923665 213.5 C 314.43547808470606 210.2 314.40803083851705 208.2875 314.6180844119465 209.25 Z " class="even" fill="#ffffff"></path><path d="M 327.5 210 C 328.325 210 329.27958266883246 211.0125 329.6212948196277 212.25 C 329.96300697042284 213.4875 329.99524185474553 215.175 329.6929278959002 216 C 329.3906139370549 216.825 329.48768433251513 218.85 329.9086398858117 220.5 C 330.3663505984362 222.29406749695102 331.8449713422573 224.14528755499123 333.58700680953916 225.10528276672136 C 335.1891530642926 225.98818828841812 336.37645143795464 227.33818828841814 336.2254476398992 228.10528276672136 C 336.07444384184373 228.8723772450246 336.8766114728395 230.4 338.00804237544526 231.5 C 339.13947327805107 232.6 340.05052184009645 233.8375 340.0325947355461 234.25 C 340.01466763099575 234.6625 338.9875 234.98703542923036 337.75 234.9711898427341 C 336.3218229978371 234.95290272982928 335.0434316678683 235.8660393940927 334.25 237.4711898427341 L 333 240 L 330.25 238.6206707063077 C 328.7375 237.86203959477695 326.9964310971955 236.62453959477693 326.3809579937678 235.8706707063077 C 325.76548489034013 235.11680181783848 324.69440935863304 232.025 324.0007901455298 229 C 323.3071709324266 225.975 322.97233401797905 221.7 323.2567081134242 219.5 C 323.54108220886934 217.3 324.27465774057646 214.2625 324.8868759616622 212.75 C 325.49909418274797 211.2375 326.675 210 327.5 210 Z " class="even" fill="#ffffff"></path><path d="M 536.75 212.07894736842104 C 539.1887434667753 212.01970663643462 540.5078679075829 212.68644783580544 542.0345854018378 214.75 C 543.1536073728487 216.2625 544.0536073728488 217.8375 544.0345854018378 218.25 C 544.015563430827 218.6625 542.9253402487358 217.7625 541.6118672194128 216.25 L 539.2237344388257 213.5 L 536.3618672194128 214.85162970771188 C 534.7878402487357 215.59502604695342 531.8125 217.50752604695344 529.75 219.10162970771188 L 526 222 L 525.9742858039067 219.75 C 525.9601429960554 218.5125 526.9726429960555 216.54477634577356 528.2242858039067 215.37728076838567 C 529.475928611758 214.2097851909978 531.175 213.00781150678728 532 212.70622813680671 C 532.825 212.40464476682618 534.9625 212.12236842105264 536.75 212.07894736842104 Z " class="even" fill="#ffffff"></path><path d="M 545.112611962015 224 C 545.7669910595058 225.65944656721194 545.7471828539924 228.68543892524897 545.053697784936 233 C 544.4790833388955 236.575 542.6569317911774 242.3125 541.0044721233403 245.75 C 539.3520124555031 249.1875 535.8625 254.2718766900668 533.25 257.04861486681506 C 530.6375 259.8253530435633 526.5875 262.97535304356336 524.25 264.04861486681506 C 521.9125 265.12187669006676 518.7625 265.9965205873055 517.25 265.99226797178994 C 515.7375 265.9880153562744 513.4875 266.6630153562744 512.25 267.49226797178994 C 511.01250000000005 268.3215205873055 509.79580606833656 268.6625 509.5462357074146 268.25 C 509.29666534649266 267.8375 509.312704169263 266.375 509.5818775357931 265 C 509.85105090232327 263.625 510.28024483398667 262.1625 510.5356418283785 261.75 C 510.79103882277036 261.3375 512.9125 261.2481325337806 515.25 261.5514056306236 L 519.5 262.1028112612472 L 516.75 260.5514056306236 C 515.2375 259.6981325337806 513.9925000000001 258.4375 513.9833333333333 257.75 C 513.9741666666666 257.0625 514.5366666666666 255.97145571665462 515.2333333333333 255.32545714812136 C 516.2346005515511 254.39701142129655 515.8190408888481 253.8208152503219 513.25 252.57545714812136 C 511.4625 251.7089557166546 510 250.55 510 250 C 510 249.45 510.675 248.775 511.5 248.5 C 512.325 248.225 513 247.1 513 246 C 513 244.9 513.7875 243.69532368180862 514.75 243.32294151513025 C 515.7125 242.95055934845186 516.846051420471 242.16305934845187 517.2690031566024 241.57294151513025 C 517.7830205205761 240.85576556523944 518.5290747187786 241.08026437637974 519.5190031566024 242.25 C 520.333551420471 243.2125 521.7875 243.8816946657705 522.75 243.73709925726783 C 524.2011287814767 243.51909763758198 524.5350565507314 242.2809168751283 524.7052688916756 236.48709925726783 C 524.8650493256928 231.04837085212782 525.3492319489676 229.0567915110073 526.8901666781564 227.5 C 527.9789625702992 226.4 529.9115915690453 225.41399980118115 531.1848977864809 225.30888844706925 C 532.4582040039163 225.20377709295732 534.0625 225.54127709295733 534.75 226.05888844706925 C 535.4375 226.57649980118114 535.775 227.675 535.5 228.5 C 535.225 229.325 535.45 230 536 230 C 536.55 230 537.0533171782814 229.4375 537.118482618403 228.75 L 537.2369652368061 227.5 L 537.118482618403 226.25 C 537.0533171782814 225.5625 537.9 225 539 225 C 540.1612212437952 225 541.6122927101325 226.1533207897816 542.4599623693448 227.75 L 543.9199247386896 230.5 L 544.0233486697639 226 C 544.1158777237833 221.97403870881357 544.2306228270315 221.76335483822976 545.112611962015 224 Z " class="even" fill="#ffffff"></path><path d="M 400.45547464893014 258.75 C 399.1330366438242 257.6797375370127 398.91735159940896 257.89542258142797 398.95547464893014 260.25 C 398.9799635920185 261.7625 399.3375 263.7385618130537 399.75 264.64124847345266 C 400.1625 265.5439351338516 401.85 266.9344290294158 403.5 267.73123490803977 C 405.18627773136245 268.5455597621866 406.7189537114396 268.7773128600608 407 268.26046342933427 C 407.275 267.7547332374223 409.3419502023788 267.3767393418581 411.59322267195296 267.42047699474716 C 413.8444951415271 267.4642146476362 416.4559957328603 268.175 417.3965573193601 269 C 418.9301634186269 270.34518042205343 419.5398199339285 270.25475768582413 423.30333464740715 268.1239214953113 C 426.4128043050428 266.363394173321 428.3419508613971 265.91003601718415 430.75 266.3739214953113 C 432.5375 266.7182646728901 434.225 267.675 434.5 268.5 L 435 270 L 438 268.5 C 439.65 267.675 441.5625 265.88029338473586 442.25 264.51176307719084 C 442.9375 263.14323276964575 443.1729183643904 261.6807327696458 442.7731519208676 261.26176307719084 C 442.3733854773448 260.84279338473584 441.36088547734477 261.0625 440.5231519208676 261.75 C 439.2731395008355 262.7758435180583 438.28269925778665 262.5516870361167 435 260.5 L 431 258 L 426.25 259.41215665714265 C 422.6841960883523 260.472256390174 420.50278224138754 260.5714174857444 417.5 259.8099076787787 C 415.3 259.25198457925006 411.925 258.5626112288417 410 258.2779669000936 C 408.075 257.9933225713454 405.4875 258.2643346116092 404.25 258.88021587845753 C 402.5461397020648 259.72819619265954 401.6250992821934 259.69658905440843 400.45547464893014 258.75 Z " class="odd" fill="#000000"></path><path d="M 405.75 264.07028526261035 C 406.1625 264.1089421570461 407.4 264.5273137888714 408.5 265 C 410.272250438271 265.76156213167025 410.18684435262264 265.867433193657 407.75 265.92971473738965 C 406.2375 265.96837163182533 405 265.55 405 265 C 405 264.45 405.3375 264.03162836817467 405.75 264.07028526261035 Z " class="even" fill="#ffffff"></path><path d="M 439.75 295.97222222222223 C 439.8875 295.9875 440 297.125 440 298.5 C 440 299.875 439.55 300.775 439 300.5 C 438.45 300.225 438 300.675 438 301.5 C 438 302.325 437.6625 302.94671052631577 437.25 302.88157894736844 C 436.8375 302.81644736842105 436.275 302.8485247347194 436 302.952861983587 C 435.725 303.0571992324546 433.7 303.36374808071605 431.5 303.63408164639026 C 429.3 303.90441521206446 427.275 304.4676615275747 427 304.88574012530194 C 426.725 305.30381872302917 425.7125 305.9505593484519 424.75 306.32294151513025 C 423.7875 306.6953236818086 423 306.55 423 306 C 423 305.45 421.8839245176388 304.8875 420.51983226141954 304.75 C 419.1557400052003 304.6125 418.0307400052003 304.8375 418.01983226141954 305.25 C 418.0089245176388 305.6625 418.3375 306.1512472458397 418.75 306.33610499075496 L 419.5 306.6722099815099 L 418.25 306.33610499075496 C 417.5625 306.1512472458397 416.1 306 415 306 C 413.8 306 412.6 305 412 303.5 C 411.45 302.125 410.325 301 409.5 301 C 408.675 301 408 300.325 408 299.5 C 408 298.62168493111574 409.06266662677064 297.89638584481406 410.5639996409359 297.75 C 411.97419944345063 297.6125 413.2838141188807 297.725 413.47425447522494 298 C 413.6646948315692 298.275 415.77339499314803 298.3937806948709 418.16025483428905 298.263957099713 C 420.54711467543007 298.13413350455517 426.1 297.8059034945057 430.5 297.5345570773808 C 434.9 297.26321066025594 438.725 296.79442996538506 439 296.49282219989004 C 439.275 296.19121443439496 439.6125 295.95694444444445 439.75 295.97222222222223 Z " class="even" fill="#ffffff"></path><path d="M 391.75 299.6233241950273 C 392.4375 299.83049588776225 393.0200364079815 300.1125 393.04452535106986 300.25 C 393.0690142941583 300.3875 392.38772015777965 301.175 391.5305383813395 302 C 390.1364912212678 303.34170947011427 389.9998838187536 303.2755782399571 390.2360130302696 301.3733241950273 C 390.3812058636213 300.2036525022923 391.0625 299.41615250229233 391.75 299.6233241950273 Z " class="even" fill="#ffffff"></path><path d="M 502.5108568136591 303.5 C 503.76949167426847 305.15 506.5029321113778 310.55 508.5851688961243 315.5 L 512.3710539592997 324.5 L 509.68552697964986 332.25 C 508.20848714084246 336.5125 502.725 349.225 497.5 360.5 C 492.275 371.775 488 381.225 488 381.5 C 488 381.775 483.32668773818665 392.0125 477.6148616404148 404.25 C 471.90303554264295 416.4875 462.95742028591764 436.175 457.73571662546965 448 C 452.5140129650217 459.825 447.25967489804947 471.75 446.0594098099757 474.5 C 444.859144721902 477.25 442.05124045262545 484.225 439.81962254491674 490 C 437.58800463720803 495.775 433.83804244147683 505.45 431.4863732210697 511.5 C 429.13470400066257 517.55 424.9367391954504 528.8 422.1575625428204 536.5 C 419.3783858901905 544.2 414.11076656838424 558.825 410.4517418276954 569 C 406.79271708700657 579.175 403.3727142553771 588.175 402.8517355351854 589 C 402.11445732250667 590.1675227833416 402.02023726682256 590.0566970444555 402.4266535252159 588.5 C 402.7138371399244 587.4 403.8179875693172 581.775 404.8803211460889 576 C 405.94265472286054 570.225 407.64167347366987 560.4577312424651 408.6559183701096 554.2949583165891 C 409.6701632665493 548.1321853907132 410.1499999999991 542.7321853907132 409.72222222222024 542.2949583165891 C 409.29444444444135 541.8577312424651 408.97682255913617 542.175 409.01639581043094 543 C 409.0559690617257 543.825 406.1434690617266 547.0875 402.5441735882107 550.25 C 398.9448781146948 553.4125 396 555.55 396 555 C 396 554.45 396.45 554 397 554 C 397.55 554 397.775 553.55 397.5 553 C 397.225 552.45 397.675 552 398.5 552 C 399.325 552 399.8945487747488 551.6625 399.76566394388624 551.25 C 399.63677911302364 550.8375 401.99927911302365 548.1901516490337 405.01566394388624 545.3670036645193 L 410.5 540.2340073290386 L 411.75 533.1170036645193 C 412.4375 529.2026516490337 413.00764245635276 525.4375 413.0169832363394 524.75 C 413.0280518289985 523.9353295480672 412.59272228093124 524.0542832284875 411.7669832363394 525.0915621594845 C 411.07014245635276 525.966921347201 408.12017897567085 528.891921347201 405.2115088348241 531.5915621594845 C 402.3028386939773 534.291202971768 399.9403386939773 535.9375 399.9615088348241 535.25 C 399.98267897567086 534.5625 403.14605131983717 530.9625 406.9912251551937 527.25 L 413.98245031038743 520.5 L 415.0504417910828 513.5 C 415.6378371054652 509.65 415.97928578562806 506.40899485293465 415.8092166358891 506.2977663398548 C 415.6391474861501 506.1865378267749 411.9 509.4036855095654 407.5 513.4469834127226 C 403.1 517.4902813158797 399.05 520.551788121704 398.5 520.2503318701099 C 397.95 519.9488756185159 399.975 517.4067279357254 403 514.6011147972422 C 406.025 511.795501658759 410.3312852506088 507.925 412.5695227791306 506 C 416.19301936971914 502.88360558341213 416.81072755980375 501.67798803554547 418.2054643784828 495 C 419.06699472960474 490.875 419.71070947899597 487.3771445967208 419.63594159935224 487.2269879927129 C 419.5611737197085 487.076831388705 415.225 490.7543324162495 410 495.3992124983674 C 404.775 500.04409258048526 400.3305824912134 503.3169479837644 400.12351664714095 502.67222450565447 C 399.91645080306847 502.02750102754453 402.16962517162557 499.25 405.13057079949 496.5 C 408.09151642735446 493.75 412.74321151314336 489.475 415.467670990132 487 L 420.4212336755658 482.5 L 421.46061683778294 475.7662576192399 C 422.03227757700233 472.0626993098218 422.275 469.04436504026796 422 469.0588481313424 C 421.725 469.0733312224168 418.35 471.876838398952 414.5 475.28886407919833 C 410.65 478.7008897594447 405.7 483.16988662377577 403.5 485.2199682221563 C 401.0461889509643 487.5065649846704 399.3443251316959 488.47437352136876 399.0972681910396 487.72369465506046 C 398.87576569611133 487.0506625947772 402.02576569611136 483.45438478935614 406.0972681910396 479.73196619856924 C 410.1687706859678 476.00954760778234 415.60416412759344 471.2845476077823 418.17592028354096 469.23196619856924 C 420.7476764394885 467.17938478935616 423.0917984098196 464.6 423.38508021761004 463.5 C 423.6783620254005 462.4 424.14714864779114 458.8 424.426828267367 455.5 C 424.70650788694286 452.2 424.69108010225494 450.175 424.39254430139385 451 C 424.09400850053277 451.825 421.3108487530054 454.525 418.20774486244414 457 C 415.1046409718829 459.475 410.4134467862397 463.1875 407.7828688943482 465.25 C 405.1522910024567 467.3125 403 468.55 403 468 C 403 467.45 405.3625 464.72386969439987 408.25 461.9419326542219 C 411.1375 459.1599956140439 416.2 454.93198236146105 419.5 452.5463476484822 L 425.5 448.2088299885206 L 426.09083967274285 442.3544149942603 C 426.5129004666922 438.17236840094995 427.54552371549613 435.21453291035004 429.7057160527232 432 C 431.3689362417038 429.525 433.51688086029384 426.825 434.47892631625655 426 C 436.0480724318227 424.6543821424252 436.65377776042004 424.73155397206574 440.36404993627616 426.7498130460058 C 442.63882247132426 427.987210221309 444.6056926872561 428.88721022130903 444.734872638347 428.7498130460058 C 444.86405258943785 428.6124158707026 442.40926747858936 425.575 439.2797946142392 422 C 436.1503217498891 418.425 430.41962906263296 412.46271717489344 426.54492197589224 408.7504826108743 C 422.6702148891515 405.03824804685513 420.0625 402.00074804685516 420.75 402.0004826108743 C 421.4375 402.0002171748934 420.0936222465318 399.6375 417.7636049922929 396.75 C 415.43358773805403 393.8625 413.40858773805405 391.3875 413.2636049922929 391.25 C 413.1186222465318 391.1125 410.8625 391.76082735653813 408.25 392.69072745897364 C 405.6375 393.62062756140915 402.2063669308066 395.30812756140915 400.62525984623693 396.44072745897364 C 399.04415276166725 397.57332735653813 396.34415276166726 399.87975875340373 394.62525984623693 401.56613056311943 C 392.3950558583638 403.75413954337824 390.6944632522975 407.1908682727663 388.6873133629168 413.56613056311943 C 387.1403357125211 418.47975875340376 386.1278357125211 422.6125 386.4373133629168 422.75 C 386.7467910133126 422.8875 387.9 422.55 389 422 C 390.1 421.45 391.9 421 393 421 C 394.1490053211296 421 395.37107922572807 421.9573690137292 395.87210704118763 423.25 C 396.35176591384084 424.4875 397.246343928328 427.075 397.86005818449246 429 C 398.47377244065694 430.925 398.9682556236273 433.175 398.95890970220444 434 C 398.94956378078155 434.825 396.9569003302277 440 394.5307687009738 445.5 C 392.1046370717198 451 389.0140435152724 458.425 387.6627830199796 462 C 386.3115225246868 465.575 384.8874050479801 470.075 384.498077516187 472 C 384.10874998439385 473.925 382.89620753747016 478.2 381.80353874524536 481.5 C 380.71086995302056 484.8 378.0916462355068 494.7 375.9830415952147 503.5 C 373.87443695492254 512.3 370.3222646253345 530.075 368.0893253072412 543 C 365.85638598914795 555.925 363.3201435024509 570.55 362.4532308923589 575.5 C 361.5863182822669 580.45 360.0262675352511 589.225 358.986451454546 595 C 357.94663537384093 600.775 356.6116618519265 608.875 356.01984362806945 613 C 355.42802540421235 617.125 353.5793330392851 630.175 351.9116383726755 642 C 349.563978499938 658.6463793108833 348.67632097405925 669.5952445863327 347.9795971134181 690.5 C 347.4846690874361 705.35 346.3890326033976 724.925 345.5448493711102 734 C 344.7006661388228 743.075 343.3340322043339 758.825 342.5078850722459 769 C 341.68173794015803 779.175 340.32167255357865 792.9 339.485517546514 799.5 C 338.6493625394494 806.1 337.7355576794992 811.725 337.45484007995805 812 C 337.1741224804169 812.275 336.964444444431 810.7 336.9888888888783 808.5 C 337.0144900421569 806.1958962051945 336.67370012222597 804.9239740512986 336.1850898854083 805.5 C 335.7185559890525 806.05 334.7903882725517 811.225 334.122494959851 817 C 333.45460164715024 822.775 331.97630199654117 831.325 330.83738462516413 836 C 329.5309887847202 841.3624614985819 328.0547780445415 845.0536832649561 326.8381376722271 846 C 325.77746921948875 846.825 324.9299784216629 848.5125 324.9548247881696 849.75 C 324.9814640845428 851.0767987998524 324.48711044436243 851.8627816543277 323.75 851.6655753071884 C 323.0625 851.4816417261421 321.8697332825536 848.8941417261422 321.09940729456355 845.9155753071884 C 320.15937187819156 842.2808051352273 319.7074190896668 834.9098852694966 319.7249815850166 823.5 C 319.7397151449625 813.9279986844422 320.47620371325775 800.6012951623547 321.4105373037115 793 C 322.3232011012545 785.575 323.25435759584997 778.825 323.4797739583681 778 C 323.70519032088635 777.175 324.17214883774716 772.9 324.5174595513922 768.5 C 324.8627702650372 764.1 325.3167605314344 759.825 325.5263268100526 759 C 325.73589308867076 758.175 326.85023933026804 749.85 328.0026517913799 740.5 C 329.15506425249174 731.15 330.95401486707254 717.425 332.00031982378175 710 C 333.04662478049096 702.575 334.5924169977888 691.325 335.4354136399992 685 C 336.2784102822096 678.675 337.42530447593225 670.0125 337.9840674038272 665.75 C 338.54283033172226 661.4875 338.96837163182533 656.0875 338.92971473738965 653.75 C 338.8766460740865 650.541051058761 338.6589911557061 649.9899063805934 338.04115754768003 651.5 C 337.33901024602676 653.2161710634321 336.92233314774535 652.7904276585803 335.1050432577141 648.5 C 333.9402299581375 645.75 332.35633745807746 642.375 331.5852821464696 641 C 330.81422683486176 639.625 329.4444894030295 634.9 328.54142118684234 630.5 C 327.4266040739031 625.0683003686665 326.8942350790173 617.3633992626668 326.88314475973675 606.5 C 326.87319357936553 596.7524316231566 327.68172286189207 583.2706259357252 328.95217474680817 572 C 330.0991250584184 561.825 331.6528632890369 548.55 332.40492637040484 542.5 C 333.1569894517728 536.45 334.7707548276808 526.1 335.99107165020035 519.5 C 337.21138847271993 512.9 339.0796301651212 503.45 340.1427198555366 498.5 C 341.2058095459519 493.55 342.4604081950295 487.475 342.93071685348673 485 C 343.401025511944 482.525 345.65733520567954 473.3 347.94473839512125 464.5 C 350.23214158456295 455.7 354.62527306467973 440.85 357.7072527953807 431.5 C 360.7892325260817 422.15 364.8636166103622 411.125 366.7614396493374 407 C 368.65926268831254 402.875 371.30235093695904 397.025 372.63496909077406 394 L 375.0579111886195 388.5 L 377.92112709241474 394.5 C 379.4958958395021 397.8 381.96513659238434 402.075 383.4083287654864 404 C 385.22615186330063 406.4247009708838 386.02735056506896 406.9623504854419 386.0161572673814 405.75 C 386.0072707703216 404.7875 384.8080111518954 401.1875 383.35113589310095 397.75 C 381.2836558556141 392.87177683987727 380.5934212259223 389.3051570561964 380.206333976224 381.5 C 379.9335681807362 376 380.0005570288408 370.2625 380.35519808312307 368.75 C 380.70983913740537 367.2375 381.93451141258265 365.2125 383.0766920279615 364.25 C 384.8684655141721 362.7400969625494 385.06142896567707 361.8140086784304 384.48314897163993 357.5 C 384.11451967528427 354.75 384.035239112441 352.725 384.3069699430994 353 C 384.5787007737577 353.275 387.1934400914373 357.1 390.11750176016517 361.5 C 393.0415634288931 365.9 399.6484794042659 373.775 404.79953726099376 379 L 414.1650970004989 388.5 L 419.33254850024946 382.90601692096885 C 422.17464682511223 379.8293262275017 435.525 367.68725453028287 449 355.9236353715937 C 462.475 344.16001621290445 478.0071512561888 330.0273085984685 483.5158916804196 324.5176184506248 C 491.3279943519441 316.7041689488267 494.26785227727146 312.95979533780064 496.8771065776043 307.5 L 500.22242979436936 300.5 L 502.5108568136591 303.5 Z " class="even" fill="#ffffff"></path><path d="M 436.75 305.1361820538333 C 436.8875 305.06128192422494 436.8331301421395 305.3375 436.62917809364336 305.75 C 436.4252260451472 306.1625 435.3002260451472 306.8375 434.12917809364336 307.25 C 432.8763926978811 307.6912919002064 432 307.5883892002752 432 307 C 432 306.45 433.0125 305.836281924225 434.25 305.6361820538333 C 435.4875 305.43608218344156 436.6125 305.2110821834416 436.75 305.1361820538333 Z " class="even" fill="#ffffff"></path><path d="M 415.75 410.9126366333214 C 416.7125 411.41458678164827 419.3 413.4208548435386 421.5 415.37101010418894 C 423.80722113387895 417.4162098458788 424.86520792520463 418.91796968118814 424 418.9196362487263 C 423.175 418.9212253675715 420.3625 417.36495730568106 417.75 415.4612627778588 C 415.1375 413.55756825003647 413.225 411.55 413.5 411 C 413.81353488312357 410.3729302337528 414.65262790906746 410.340349792996 415.75 410.9126366333214 Z " class="even" fill="#ffffff"></path><path d="M 413.75 423.18961498894635 C 416.82401802274654 425.2538116124502 417.97074253349894 426.51670200393437 417 426.7688476065789 C 416.175 426.9831373023563 413.8125 425.99781055733047 411.75 424.57923261763256 C 409.6875 423.16065467793464 408.225 421.55 408.5 421 C 408.77581609079937 420.4483678184013 411.1297471374062 421.430120714134 413.75 423.18961498894635 Z " class="even" fill="#ffffff"></path><path d="M 904 426 L 898 426 L 898 438.5 L 898 451 L 904 451 L 910 451 L 910 438.5 L 910 426 L 904 426 Z " class="odd" fill="#000000"></path><path d="M 412 428.9923153993054 C 412.9262358705364 429.0302825504683 412.1612170312516 430.20037255950064 410 432.05129891434217 C 408.075 433.69992243597267 405.7125 435.4878170754581 404.75 436.0243981131988 C 403.2900449301745 436.83830378220836 403.1424608290288 436.7099550698255 403.8595442459564 435.25 C 404.3322935812324 434.2875 406.0197935812324 432.47193656917295 407.6095442459564 431.21541459816206 C 409.19929491068035 429.9588926271512 411.175 428.95849798766574 412 428.9923153993054 Z " class="even" fill="#ffffff"></path><path d="M 445.25 428.95547464893014 C 445.1125 428.9799635920185 444.9799635920185 429.1125 444.95547464893014 429.25 C 444.9309857058417 429.3875 445.71848570584166 430.175 446.70547464893014 431 L 448.5 432.5 L 447 430.70547464893014 C 446.175 429.71848570584166 445.3875 428.9309857058417 445.25 428.95547464893014 Z " class="odd" fill="#000000"></path><path d="M 374.75 432.96541459816206 C 374.6125 432.9463926271512 373.2625 433.8463926271512 371.75 434.96541459816206 C 370.2375 436.08443656917296 369 437.45 369 438 C 369 438.55 369.3375 438.9751018464765 369.75 438.9446707699477 C 370.1625 438.91423969341895 371.5125 437.564239693419 372.75 435.9446707699477 C 373.9875 434.32510184647646 374.8875 432.98443656917294 374.75 432.96541459816206 Z " class="odd" fill="#000000"></path><path d="M 424.82738095238096 435.37214366006276 L 425.1547619047619 436.5 L 424.82738095238096 436.5734152595868 C 424.64732142857144 436.6137936523595 421.575 438.82263886902643 418 441.48196018551334 C 414.425 444.1412815020002 410.0442488353932 447.70824463518613 408.26499741198484 449.40854492592655 C 406.48574598857647 451.10884521666696 404.6857459885765 452.15423539295756 404.26499741198484 451.7316342065724 C 403.84424883539316 451.30903302018726 405.3 449.1433822638011 407.5 446.9190769701587 C 409.7 444.69477167651627 414.425 440.93300093058696 418 438.559586423649 C 421.7034349811209 436.10090493842 424.64085263373477 434.72953710267774 424.82738095238096 435.37214366006276 Z " class="even" fill="#ffffff"></path><path d="M 400 471 C 400.55 471 400.775 471.45 400.5 472 C 400.225 472.55 399.55 473 399 473 C 398.45 473 398.225 472.55 398.5 472 C 398.775 471.45 399.45 471 400 471 Z " class="even" fill="#ffffff"></path><path d="M 380.75 507.4768480791323 C 380.8875 507.76458163560955 380.0338195831935 509.0125 378.8529324070967 510.25 C 377.6720452309999 511.4875 377.0671102800281 511.825 377.50863251604824 511 C 377.95015475206844 510.175 378.8038351688749 508.92708163560957 379.4057001089516 508.2268480791323 C 380.0075650490282 507.5266145226551 380.6125 507.18911452265513 380.75 507.4768480791323 Z " class="even" fill="#ffffff"></path><path d="M 394.25 523 C 394.3875 523 394.5 523.6320288237343 394.5 524.4045084971874 C 394.5 525.1769881706406 394.1625 525.6269881706405 393.75 525.4045084971874 C 393.3375 525.1820288237344 393.225 524.55 393.5 524 C 393.775 523.45 394.1125 523 394.25 523 Z " class="even" fill="#ffffff"></path><path d="M 399 536.5166666666667 C 399.275 536.8008333333333 398.93 537.5883333333334 398.23333333333335 538.2666666666667 C 397.53666666666663 538.9449999999999 396.96166666666664 539.05 396.9555555555555 538.5 C 396.94944444444445 537.95 397.2944444444445 537.1625 397.72222222222223 536.75 C 398.15 536.3375 398.725 536.2325 399 536.5166666666667 Z " class="even" fill="#ffffff"></path><path d="M 395.66823308270676 539 C 395.94891917293234 539.825 395.69621264370227 540.95 395.1066630177511 541.5 C 394.36248614164424 542.1942541625709 394.1589214842763 541.8885083251417 394.44086603068604 540.5 C 394.66422731375144 539.4 394.9169338429815 538.275 395.0024360956417 538 C 395.0879383483019 537.725 395.3875469924812 538.175 395.66823308270676 539 Z " class="even" fill="#ffffff"></path><path d="M 405.75 561.0270575879041 C 405.8875 561.0121759145568 406 561.45 406 562 C 406 562.55 404.65 564.35 403 566 C 401.35 567.65 399.55 568.775 399 568.5 C 398.45 568.225 399.6875 566.4371759145569 401.75 564.5270575879041 C 403.8125 562.6169392612513 405.6125 561.0419392612514 405.75 561.0270575879041 Z " class="even" fill="#ffffff"></path><path d="M 402 580 C 402.5883892002752 580 402.6912919002064 580.8763926978811 402.25 582.1291780936433 C 401.8375 583.3002260451472 401.1625 584.4252260451472 400.75 584.6291780936433 C 400.3375 584.8331301421396 399.8274519595725 584.8875 399.6165599101612 584.75 C 399.4056678607498 584.6125 399.6306678607498 583.4875 400.1165599101612 582.25 C 400.60245195957253 581.0125 401.45 580 402 580 Z " class="even" fill="#ffffff"></path><path d="M 399 599.5204680783007 C 399.275 599.7734127829428 399.1625 600.6597848444969 398.75 601.4901837706432 C 398.3375 602.3205826967894 397.1 603.45 396 604 C 394.4796000885559 604.7601999557221 394.1722011837571 604.7002499446526 394.71810321918673 603.75 C 395.11305998973944 603.0625 396.12555998973943 601.7261279384459 396.96810321918673 600.7802843076576 C 397.81064644863403 599.8344406768692 398.725 599.2675233736586 399 599.5204680783007 Z " class="even" fill="#ffffff"></path><path d="M 336.19075434769195 654.7333333333333 C 336.9108394564614 655.4116666666666 337.275 656.2035839698773 337 656.4931495626902 C 336.725 656.7827151555031 336.1358394564614 656.2277151555031 335.69075434769195 655.2598162293568 C 335.0358034941422 653.8355353101814 335.1311359795984 653.7351534641252 336.19075434769195 654.7333333333333 Z " class="even" fill="#ffffff"></path><path d="M 434 881 L 422 881 L 422 887.5 L 422 894 L 434 894 L 446 894 L 446 887.5 L 446 881 L 434 881 Z " class="odd" fill="#000000"></path><path d="M 904 881 L 898 881 L 898 887.5 L 898 894 L 904 894 L 910 894 L 910 887.5 L 910 881 L 904 881 Z " class="odd" fill="#000000"></path></g></svg>