<?xml version="1.0" standalone="no"?>
<!DOCTYPE svg PUBLIC "-//W3C//DTD SVG 20010904//EN"
 "http://www.w3.org/TR/2001/REC-SVG-20010904/DTD/svg10.dtd">
<svg version="1.0" xmlns="http://www.w3.org/2000/svg"
 width="300.000000pt" height="287.000000pt" viewBox="0 0 300.000000 287.000000"
 preserveAspectRatio="xMidYMid meet">
<metadata>
Created by potrace 1.10, written by Peter Selinger 2001-2011
</metadata>
<g transform="translate(0.000000,287.000000) scale(0.100000,-0.100000)"
fill="#000000" stroke="none">
<path d="M1574 2654 c16 -9 34 -20 40 -25 49 -41 61 -49 77 -54 11 -4 20 -12
20 -18 3 -27 5 -34 28 -69 28 -47 38 -50 14 -5 -10 17 -18 43 -20 56 -4 40
-10 48 -41 54 -18 4 -31 14 -35 26 -5 21 -27 33 -82 45 l-30 6 29 -16z"/>
<path d="M1381 2644 c-25 -8 -50 -19 -55 -24 -7 -7 2 -6 23 1 19 7 58 9 94 6
38 -3 55 -2 46 4 -10 6 -6 9 16 10 l30 1 -30 8 c-44 11 -75 10 -124 -6z"/>
<path d="M1316 2587 c-14 -10 -9 -12 29 -9 51 4 52 6 14 15 -15 4 -33 1 -43
-6z"/>
<path d="M1244 2552 c-50 -45 -78 -88 -70 -108 4 -9 2 -12 -5 -8 -8 5 -9 -13
-5 -62 4 -38 8 -89 10 -114 2 -25 8 -56 14 -70 13 -34 4 -40 -18 -12 -10 12
-23 22 -29 22 -20 0 -11 -17 14 -28 15 -7 25 -20 25 -32 0 -11 4 -20 8 -20 5
0 17 -28 27 -62 36 -127 46 -154 69 -189 13 -19 35 -68 49 -108 26 -74 71
-149 94 -158 13 -5 198 154 245 211 16 19 30 52 35 81 8 47 10 50 43 52 39 3
73 25 104 67 24 31 27 105 6 131 -20 24 -30 17 -15 -11 25 -48 -12 -126 -77
-160 -15 -8 -34 -14 -42 -14 -14 0 -14 5 1 43 22 58 34 72 44 55 6 -9 9 -4 9
13 0 29 14 45 45 51 13 2 16 6 8 11 -6 4 -25 -4 -42 -19 -17 -14 -31 -21 -31
-15 0 6 11 21 25 33 14 12 28 37 31 57 4 20 15 53 25 73 11 21 19 52 19 70 0
54 -29 162 -47 176 -9 6 -13 12 -8 12 5 0 -1 7 -13 16 -35 25 -37 10 -3 -28
40 -46 56 -87 36 -94 -11 -5 -12 -11 -5 -24 19 -36 12 -109 -13 -136 l-23 -25
-28 86 c-15 47 -30 85 -33 85 -3 0 -3 -7 1 -15 3 -8 1 -15 -5 -15 -5 0 -12 7
-15 15 -4 8 -10 12 -15 10 -9 -6 -22 34 -17 54 5 23 -20 23 -32 1 -10 -18 -6
-28 29 -74 22 -28 52 -78 66 -109 23 -52 24 -62 14 -105 -14 -57 -25 -80 -53
-111 -18 -21 -19 -23 -3 -18 14 5 17 3 13 -11 -3 -9 -8 -32 -11 -51 -9 -51
-32 -90 -89 -143 -28 -27 -45 -46 -37 -42 9 4 12 3 8 -3 -14 -22 -67 -36 -92
-25 -16 7 -25 8 -25 2 0 -6 -13 -10 -30 -10 -20 0 -39 11 -65 37 -19 20 -35
42 -35 49 0 7 -18 44 -40 83 -42 73 -46 87 -31 93 5 2 -1 32 -13 68 -13 36
-26 95 -30 131 -6 61 -5 67 14 72 11 3 20 12 20 21 0 15 -3 15 -30 1 l-30 -16
0 33 c0 18 -3 42 -6 53 -3 13 5 35 21 58 14 21 21 36 15 32 -18 -11 -11 7 17
44 16 20 27 39 25 44 -1 4 2 7 7 7 5 0 11 7 15 15 7 21 7 20 -40 -23z m263
-836 c8 -7 -26 -55 -50 -70 -22 -14 -34 -1 -42 45 l-7 35 46 -1 c26 -1 49 -5
53 -9z"/>
<path d="M1473 2572 c-18 -2 -33 -7 -33 -11 0 -10 88 -2 108 9 15 7 -20 9 -75
2z"/>
<path d="M1356 2559 c2 -5 -8 -11 -23 -15 -49 -10 -52 -13 -73 -46 -24 -40
-27 -62 -3 -28 28 41 51 62 60 57 5 -3 25 5 46 18 36 21 36 23 13 23 -14 0
-23 -4 -20 -9z"/>
<path d="M1405 2490 c-20 -7 -20 -7 0 -11 18 -4 16 -7 -12 -24 -18 -10 -37
-32 -44 -47 -8 -21 -15 -26 -22 -19 -18 18 -27 12 -27 -18 0 -20 -6 -30 -20
-34 -28 -7 -25 -34 5 -39 19 -4 29 2 50 31 14 21 25 42 25 48 0 6 16 23 35 37
31 24 42 26 110 24 42 -1 79 -6 81 -10 11 -17 24 -7 24 17 0 14 -5 25 -11 25
-6 0 -27 8 -46 17 -28 13 -43 14 -74 6 -21 -5 -42 -7 -46 -3 -4 4 -17 4 -28 0z"/>
<path d="M1276 2251 c-4 -5 13 -12 36 -16 24 -4 55 -14 71 -21 35 -19 36 -37
1 -24 -14 6 -48 10 -75 10 -42 0 -49 -3 -49 -20 0 -24 38 -28 46 -5 6 14 8 13
20 -2 11 -15 16 -16 33 -6 11 7 22 9 25 4 8 -13 54 -1 61 16 8 23 -10 40 -62
57 -52 18 -99 21 -107 7z"/>
<path d="M1565 2232 c-37 -13 -65 -37 -65 -56 0 -19 1 -18 23 2 25 24 111 44
147 35 17 -4 21 -2 18 8 -5 15 -88 23 -123 11z"/>
<path d="M1108 2184 c-14 -14 -8 -75 11 -112 11 -20 33 -45 51 -55 38 -23 50
-16 17 9 -36 29 -58 68 -65 119 -4 26 -10 43 -14 39z"/>
<path d="M1544 2166 c-10 -8 -16 -18 -12 -22 4 -4 15 -1 24 7 13 11 18 11 21
2 5 -15 43 -18 43 -3 0 6 5 10 10 10 6 0 10 -7 10 -16 0 -21 44 -15 48 7 5 29
-109 40 -144 15z"/>
<path d="M1508 2038 c7 -7 12 -19 12 -27 0 -16 -29 -18 -103 -7 -22 3 -27 1
-25 -12 2 -10 11 -16 22 -14 9 2 23 -2 31 -8 10 -8 15 -8 20 0 4 7 18 9 31 6
17 -5 26 -2 30 9 8 21 -4 65 -18 65 -9 0 -9 -3 0 -12z"/>
<path d="M1400 1913 c-88 -14 -48 -31 77 -32 50 -1 94 3 97 8 7 11 -79 23
-110 15 -15 -4 -24 -2 -24 5 0 6 -3 10 -7 10 -5 -1 -19 -4 -33 -6z"/>
<path d="M1720 1871 c0 -6 7 -28 15 -47 15 -35 14 -35 -91 -267 -110 -240
-140 -313 -205 -505 -28 -82 -34 -110 -22 -100 16 13 72 126 78 158 2 9 17 52
35 95 70 175 89 216 204 458 l46 98 40 -22 c22 -13 40 -26 40 -29 0 -3 30 -12
68 -19 37 -8 87 -24 112 -37 25 -12 77 -35 115 -49 39 -14 81 -31 95 -38 27
-14 53 -76 65 -154 3 -26 15 -80 26 -119 12 -46 22 -137 29 -255 5 -101 15
-204 20 -229 5 -25 13 -149 16 -276 6 -206 5 -234 -9 -255 -10 -13 -17 -32
-17 -42 0 -10 -18 -66 -40 -124 -22 -59 -38 -109 -35 -111 8 -8 10 -4 48 93
50 128 78 237 80 308 3 106 -14 388 -29 467 -8 41 -14 131 -15 200 0 93 -5
143 -20 195 -11 39 -26 106 -33 150 -7 44 -20 95 -29 112 -20 37 -63 73 -88
73 -10 0 -60 18 -111 41 -51 23 -129 53 -172 68 -61 20 -92 37 -133 75 -29 26
-53 54 -53 61 0 7 -7 18 -15 25 -11 9 -15 9 -15 1z"/>
<path d="M1400 1839 c12 -21 68 -26 101 -9 32 18 21 29 -17 17 -26 -8 -43 -8
-65 0 -27 10 -28 10 -19 -8z"/>
<path d="M1244 1651 c-44 -25 -105 -59 -134 -76 -69 -38 -107 -75 -116 -111
-4 -15 -2 -75 5 -133 7 -58 16 -227 20 -376 8 -240 11 -276 30 -327 26 -67 22
-94 -26 -156 -38 -50 -38 -50 -17 -80 9 -13 16 -40 17 -60 0 -61 -21 -213 -32
-226 -16 -20 -26 -106 -12 -106 6 0 11 13 11 30 0 30 18 80 29 80 4 0 8 19 9
42 2 24 5 63 7 88 8 70 6 127 -5 155 -12 31 -2 55 41 100 26 28 27 33 18 75
-15 65 -28 189 -33 315 -3 61 -9 166 -15 235 -5 69 -10 145 -10 170 0 25 -3
75 -6 111 -4 41 -3 75 4 87 10 20 195 131 238 144 26 7 29 1 9 -27 -19 -28
-96 -252 -89 -259 4 -3 2 -6 -3 -6 -5 0 -10 -11 -11 -25 -1 -14 -3 -33 -4 -42
-1 -10 -7 -47 -14 -83 -23 -114 -28 -200 -25 -410 4 -317 2 -383 -11 -374 -5
3 -10 -5 -13 -18 -21 -112 -25 -140 -21 -188 2 -30 8 -84 14 -120 6 -36 11
-68 11 -72 0 -5 3 -8 8 -8 6 0 6 116 1 225 -1 11 9 65 21 120 12 57 21 130 21
170 -10 499 21 748 123 1015 25 66 53 176 43 169 -1 -1 -38 -22 -83 -48z"/>
<path d="M1850 1621 c0 -5 -21 -17 -47 -27 -25 -10 -41 -20 -35 -22 14 -4 92
36 92 48 0 6 -2 10 -5 10 -3 0 -5 -4 -5 -9z"/>
<path d="M1397 1569 c-15 -9 -47 -59 -47 -75 0 -3 7 -4 15 0 28 10 28 -39 2
-106 -14 -35 -29 -76 -33 -93 -6 -27 -1 -24 50 33 32 34 63 62 69 62 6 0 -20
-33 -59 -72 -39 -40 -74 -81 -78 -91 -11 -34 -75 -431 -81 -502 -2 -38 -10
-144 -16 -235 -6 -91 -19 -210 -29 -265 -10 -55 -21 -129 -24 -165 l-6 -65 19
25 c49 61 61 79 61 86 0 4 -13 -5 -30 -21 -42 -40 -38 -17 6 34 39 45 42 67 4
26 -13 -14 -28 -25 -33 -25 -5 0 9 21 33 46 45 49 48 74 4 33 -23 -20 -25 -21
-16 -4 5 11 22 31 36 44 14 14 26 29 26 34 0 6 -10 1 -23 -11 -39 -37 -41 -25
-3 21 19 23 39 56 45 72 9 25 8 27 -2 11 -17 -26 -71 -85 -61 -66 4 8 23 38
41 67 18 29 33 58 33 64 0 7 -13 -8 -29 -33 -47 -74 -54 -65 -10 13 41 73 49
108 9 45 -35 -57 -34 -42 1 24 18 33 29 63 26 66 -3 3 -13 -8 -22 -26 -9 -18
-19 -30 -22 -27 -2 3 7 25 21 50 33 56 34 85 1 32 -32 -52 -32 -33 0 24 32 55
32 74 0 38 -36 -41 -30 -17 8 34 49 65 54 91 7 40 -22 -24 -40 -39 -40 -33 0
6 22 34 48 64 70 76 74 104 6 38 -31 -30 -52 -46 -46 -35 6 11 31 40 56 65 26
25 56 61 67 80 l21 35 -28 -25 c-15 -14 -47 -45 -71 -70 -23 -25 -42 -40 -43
-34 0 6 28 39 63 75 73 74 100 121 40 69 -21 -18 -50 -47 -65 -64 -14 -17 -29
-28 -32 -25 -4 3 27 39 69 80 41 41 75 80 75 88 0 8 -27 -11 -59 -42 -86 -82
-88 -70 -3 16 39 40 72 79 72 87 0 8 -29 -15 -65 -50 -36 -35 -65 -60 -65 -54
0 5 32 41 70 79 39 38 70 76 70 84 0 9 -29 -14 -65 -49 -36 -35 -65 -60 -65
-54 0 5 32 41 70 79 39 38 70 76 70 84 0 9 -31 -16 -70 -54 -94 -94 -89 -73 6
25 42 43 74 84 72 90 -2 6 -34 -19 -71 -57 -37 -37 -67 -63 -67 -57 0 6 34 43
75 83 41 40 75 80 75 89 0 10 -27 -11 -70 -53 -38 -38 -70 -65 -70 -59 0 7 34
44 76 84 56 53 75 77 71 91 -3 10 -1 22 4 25 11 6 12 34 2 34 -5 0 -30 -21
-57 -48 -27 -26 -44 -38 -38 -27 13 25 46 56 92 88 l35 23 35 -25 c23 -17 11
0 -35 49 -38 41 -74 76 -80 77 -5 2 -18 -2 -28 -8z m75 -67 c23 -28 0 -19 -37
14 -39 35 -39 35 -7 17 19 -10 38 -24 44 -31z m-27 -22 c15 -16 15 -20 3 -15
-9 4 -18 0 -21 -9 -4 -9 -12 -16 -18 -16 -8 0 -6 7 4 18 13 14 14 21 5 30 -7
7 -8 12 -2 12 6 0 19 -9 29 -20z"/>
<path d="M1513 983 c-72 -109 -143 -214 -156 -233 -14 -19 -27 -48 -31 -65 -5
-30 -5 -30 10 4 8 18 22 40 30 48 23 23 236 353 275 425 25 47 -6 3 -128 -179z"/>
<path d="M2003 975 c0 -164 1 -166 6 -53 4 65 4 141 0 170 -3 30 -6 -21 -6
-117z"/>
<path d="M1180 671 c0 -7 -4 -9 -10 -6 -12 7 -12 -31 -1 -60 6 -15 9 -9 14 25
3 25 4 47 1 49 -2 2 -4 -1 -4 -8z"/>
<path d="M1985 462 c-21 -28 -38 -62 -30 -62 7 0 58 80 54 84 -2 2 -13 -8 -24
-22z"/>
<path d="M2104 475 c3 -9 6 -19 6 -21 0 -3 5 -2 10 1 6 3 10 -4 10 -16 0 -17
3 -19 14 -10 15 13 42 6 49 -14 7 -16 70 -49 65 -33 -3 7 -39 34 -83 61 -50
31 -76 43 -71 32z"/>
</g>
</svg>
